<?xml version="1.0" encoding="UTF-8"?> <svg xmlns="http://www.w3.org/2000/svg" width="76" height="80" viewBox="0 0 76 80" fill="none"> <path fill-rule="evenodd" clip-rule="evenodd" d="M42.374 79.9997C36.6973 80.0853 27.5087 64.3344 24.3812 59.9843C19.8216 53.6422 19.8556 53.6585 15.159 47.383C11.6816 42.7364 7.60034 37.941 5.16512 32.6709C4.49281 31.2158 3.18013 27.4163 2.85081 26.4798C1.01079 21.2477 -1.12452 15.128 0.688752 9.59771C1.91453 5.85938 6.63911 5.13319 10.1477 5.18244C18.5813 5.30092 25.7592 10.4894 30.507 16.8701C33.1077 20.3652 34.7867 24.2695 36.7228 28.1247C37.2482 29.1709 37.8058 30.2015 38.3444 31.2414C38.5866 31.7092 38.8095 32.1864 39.065 32.6475C39.2306 32.9466 39.3893 33.2537 39.6066 33.5203C39.6956 33.6294 39.8802 33.8636 39.9659 33.7522C40.3526 33.2484 40.5212 32.6181 40.7492 32.0318C41.6021 29.8374 42.4941 26.6074 43.2089 24.5751C43.7773 22.9597 44.8726 20.5061 45.7388 19.0418C46.8774 17.1173 48.0301 15.195 49.3353 13.3709C50.6418 11.5447 52.1025 9.8234 53.562 8.10763C54.2511 7.29749 55.0112 6.54446 55.7754 5.79928C59.092 2.56559 63.9901 -1.14318 69.0634 0.334331C74.9563 2.05039 76.1938 9.28579 75.9769 14.3592C75.9027 16.0946 75.7941 17.8328 75.5496 19.5539C73.2225 35.932 64.4639 50.6642 55.2803 64.313C53.9972 66.22 45.9372 79.9449 42.374 79.9997Z" fill="#E83655" fill-opacity="0.2"></path> </svg> 