<?xml version="1.0" encoding="UTF-8"?> <svg xmlns="http://www.w3.org/2000/svg" width="55" height="57" viewBox="0 0 55 57" fill="none"> <path d="M53.2877 9.07793C52.0006 8.12678 49.6636 9.43971 48.2205 10.2504C47.9671 10.3928 47.7413 10.5197 47.5536 10.6161C42.0326 13.4512 39.951 15.4664 39.4472 15.4234C38.9118 15.3777 40.1583 13.0074 40.9527 6.82628C40.9781 6.62812 41.0196 6.38566 41.0662 6.11361C41.3313 4.56428 41.7606 2.05525 40.33 1.30233C39.7505 0.99732 39.3393 0.831173 38.5815 1.01209C37.3278 1.3114 36.3798 2.28867 35.8382 3.60395C33.8321 8.47617 34.3024 14.0456 36.2643 17.6571C35.6407 18.2796 34.9695 19.2738 34.3492 19.9311C32.5673 21.8191 30.7846 23.7142 28.9977 25.6033C29.1124 22.936 28.8371 20.5634 28.6285 17.9661C28.3878 14.9697 28.0708 11.9439 27.2497 9.5696C26.6909 7.95383 25.8006 5.5594 24.5709 5.78771C23.4042 6.00429 22.1472 7.65055 21.658 10.0644C21.0529 13.0502 21.2165 17.254 21.6778 19.8095C22.2631 23.0512 24.3527 25.9504 27.0011 27.3724C26.016 28.4459 24.1871 30.9864 23.2345 32.1C21.4187 34.2228 20.1933 35.4556 18.6505 37.0241C18.812 35.3079 18.999 30.6551 18.4173 27.2206C18.3869 27.0414 18.3607 26.8188 18.3312 26.569C18.1632 25.1467 17.8913 22.8433 16.1701 22.6524C15.4728 22.575 14.9926 22.5635 14.248 22.9627C13.0161 23.6233 12.3011 24.7709 12.1109 26.0799C11.3539 31.2891 13.8339 36.276 17.3181 38.5908C15.1011 40.6549 13.334 42.4987 10.5103 46.6292C10.638 44.5513 10.2078 42.4465 9.86235 40.5943C9.71885 39.825 9.57532 39.0555 9.47017 38.2501C9.02956 34.8753 8.49855 31.4718 7.41447 28.8352C6.67672 27.0409 5.51081 24.3856 4.08925 24.7168C2.74065 25.0311 1.3629 26.9677 0.921417 29.727C0.348102 33.3103 0.739513 37.6688 1.46477 40.748C2.07548 43.3409 3.88611 46.1325 5.8788 47.543C6.04414 47.66 6.20813 47.7801 6.37179 47.9001C6.99314 48.3553 7.62545 48.9146 8.42265 49.1082C7.76903 49.8898 4.02926 54.9034 3.76306 55.7102C3.62417 56.1311 3.71852 56.437 4.25779 56.6647C4.54688 56.7868 4.63191 56.6858 6.24869 54.8417C7.21447 53.6679 8.40771 52.2241 9.34946 51.0923C9.75193 51.7531 10.4128 52.2065 10.9962 52.6734C11.1545 52.8 11.3131 52.9269 11.4689 53.0559C13.3832 54.64 16.4943 55.6614 19.2745 55.6199C20.9515 55.5949 22.9486 55.3136 24.796 54.9305C25.0622 54.8753 25.3335 54.8208 25.6085 54.7655C27.1724 54.4511 28.8532 54.1133 30.3522 53.4995C32.9875 52.4205 34.5817 50.6497 34.5713 49.2946C34.5604 47.8661 31.6438 47.3947 29.685 47.1237C26.8066 46.7254 23.2987 47.0355 19.841 47.4246C19.0157 47.5174 18.217 47.5652 17.4185 47.613C15.7868 47.7108 14.1489 47.9215 12.4885 48.1726C12.194 48.2172 11.9203 48.271 11.6669 48.3329C15.5069 42.8047 16.2839 41.8766 18.2855 40.0089C18.3 40.1596 18.7422 40.3846 18.887 40.5155C21.9835 43.315 27.5102 44.5402 32.5121 42.6182C33.7676 42.1357 34.7424 41.1896 35.1148 39.8622C35.3399 39.0599 35.2181 38.6043 34.981 37.9567C34.3958 36.3581 32.0471 36.628 30.5968 36.7947C30.3421 36.824 30.1152 36.8501 29.9303 36.8623C25.9735 37.1241 20.7289 38.6504 19.6875 39.0544C19.5963 39.0898 19.2575 39.3321 18.923 39.252C19.306 38.7972 20.5309 37.3053 22.5863 34.9024C23.0654 34.3422 27.333 29.8324 27.4393 29.9323C29.6357 31.9978 33.1617 33.0649 36.498 32.6858C39.2652 32.3713 43.3482 31.3632 46.2116 29.9218C48.4766 28.7815 49.7577 27.1525 49.6404 26.015C49.5167 24.8161 46.8772 24.6788 45.1081 24.6249C42.5084 24.5457 39.4037 25.1174 36.35 25.7509C35.6212 25.9022 34.9124 26.0132 34.2039 26.1242C33.5406 26.2281 32.8774 26.332 32.198 26.4688C31.6436 26.5805 31.0706 26.7251 30.5007 26.869C30.3606 26.9044 30.2207 26.9397 30.0813 26.9745C31.045 25.9506 32.0199 24.9322 33.0026 23.9055C33.9153 22.952 34.8348 21.9914 35.7584 21.0127C36.4251 20.3063 37.0974 19.6359 37.7955 18.9397C37.8816 18.8546 37.967 18.7687 38.0526 18.6832C42.4354 19.1876 48.4333 17.5105 52.6834 13.8171C53.7896 12.8558 54.4065 11.6709 54.2335 10.4771C54.129 9.75544 53.8091 9.46323 53.2877 9.07793Z" fill="#E83655"></path> </svg> 