<?xml version="1.0" encoding="UTF-8"?> <svg xmlns="http://www.w3.org/2000/svg" width="181" height="36" viewBox="0 0 181 36" fill="none"> <path d="M4.40373 35.9031C1.99053 35.9031 0.783936 34.6595 0.783936 32.1723V14.9717C0.783936 12.5168 1.95878 11.2894 4.30847 11.2894C6.65816 11.2894 7.833 12.5168 7.833 14.9717V15.1655C8.62682 13.8735 9.69053 12.8883 11.0241 12.21C12.3577 11.5316 13.8501 11.1925 15.5012 11.1925C18.2637 11.1925 20.3276 12.0162 21.693 13.6635C23.0584 15.2786 23.741 17.782 23.741 21.1736V32.1723C23.741 34.6595 22.5344 35.9031 20.1212 35.9031C18.9781 35.9031 18.0891 35.5801 17.454 34.9341C16.8507 34.288 16.5491 33.3674 16.5491 32.1723V21.5128C16.5491 19.8654 16.2474 18.6864 15.6441 17.9758C15.0408 17.2328 14.1518 16.8614 12.9769 16.8614C11.4528 16.8614 10.2303 17.3459 9.3095 18.3149C8.42042 19.284 7.97589 20.576 7.97589 22.1911V32.1723C7.97589 34.6595 6.78517 35.9031 4.40373 35.9031Z" fill="#2B2D3E"></path> <path d="M37.9293 36C34.9446 36 32.7378 35.1602 31.3089 33.4805C29.9118 31.8008 29.2133 29.2813 29.2133 25.9219V14.9717C29.2133 12.5168 30.404 11.2894 32.7854 11.2894C35.1986 11.2894 36.4052 12.5168 36.4052 14.9717V26.1157C36.4052 28.926 37.5959 30.3311 39.9774 30.3311C41.3427 30.3311 42.4541 29.8466 43.3114 28.8775C44.2005 27.8762 44.645 26.568 44.645 24.9529V14.9717C44.645 12.5168 45.8357 11.2894 48.2172 11.2894C50.6304 11.2894 51.837 12.5168 51.837 14.9717V32.1723C51.837 34.6595 50.678 35.9031 48.36 35.9031C47.217 35.9031 46.3438 35.5801 45.7405 34.9341C45.1372 34.288 44.8355 33.3836 44.8355 32.2207C43.2796 34.7402 40.9776 36 37.9293 36Z" fill="#2B2D3E"></path> <path d="M69.0791 36C62.5063 36 59.2199 32.7537 59.2199 26.2611V17.1521H57.2195C55.3461 17.1521 54.4094 16.2476 54.4094 14.4388C54.4094 12.5976 55.3461 11.677 57.2195 11.677H59.2199V7.99462C59.2199 5.5074 60.4265 4.2638 62.8397 4.2638C65.2212 4.2638 66.4119 5.5074 66.4119 7.99462V11.677H70.9366C72.7783 11.677 73.6991 12.5976 73.6991 14.4388C73.6991 16.2476 72.7783 17.1521 70.9366 17.1521H66.4119V25.9704C66.4119 27.3271 66.7135 28.3446 67.3168 29.0229C67.9519 29.7012 68.9521 30.0404 70.3174 30.0404C70.7937 30.0404 71.2383 29.9919 71.651 29.895C72.0638 29.7981 72.4449 29.7335 72.7941 29.7012C73.2387 29.6689 73.6038 29.8143 73.8896 30.1373C74.1754 30.4603 74.3183 31.1225 74.3183 32.1238C74.3183 32.9314 74.1912 33.6258 73.9372 34.2073C73.6832 34.7564 73.2387 35.1602 72.6036 35.4186C72.1908 35.5801 71.6193 35.7093 70.889 35.8062C70.1904 35.9354 69.5871 36 69.0791 36Z" fill="#2B2D3E"></path> <path d="M80.7702 35.9031C78.2935 35.9031 77.0552 34.6595 77.0552 32.1723V14.9717C77.0552 12.5168 78.23 11.2894 80.5797 11.2894C82.9294 11.2894 84.1042 12.5168 84.1042 14.9717V15.8439C85.2473 12.969 87.6129 11.4186 91.2009 11.1925C91.9948 11.1279 92.598 11.3378 93.0108 11.8223C93.4554 12.2746 93.6935 13.0336 93.7253 14.0996C93.7888 15.1009 93.5824 15.8923 93.1061 16.4738C92.6616 17.0552 91.8995 17.4105 90.8199 17.5397L89.7244 17.6366C86.1682 17.9919 84.39 19.8331 84.39 23.1602V32.1723C84.39 34.6595 83.1834 35.9031 80.7702 35.9031Z" fill="#2B2D3E"></path> <path d="M100.502 7.31629C99.1681 7.31629 98.1361 7.00942 97.4058 6.39569C96.7073 5.74967 96.358 4.84522 96.358 3.68237C96.358 2.48722 96.7073 1.58277 97.4058 0.969046C98.1361 0.323015 99.1681 0 100.502 0C103.232 0 104.598 1.22746 104.598 3.68237C104.598 6.10498 103.232 7.31629 100.502 7.31629ZM100.502 35.8546C99.3269 35.8546 98.4219 35.5155 97.7869 34.8371C97.1836 34.1265 96.8819 33.1413 96.8819 31.8816V15.3109C96.8819 12.6299 98.0885 11.2894 100.502 11.2894C101.645 11.2894 102.518 11.6447 103.121 12.3553C103.756 13.0336 104.074 14.0188 104.074 15.3109V31.8816C104.074 33.1413 103.772 34.1265 103.169 34.8371C102.566 35.5155 101.677 35.8546 100.502 35.8546Z" fill="#2B2D3E"></path> <path d="M121.208 36C118.668 36 116.445 35.4993 114.54 34.498C112.667 33.4643 111.222 32.0108 110.206 30.1373C109.19 28.2638 108.682 26.0511 108.682 23.4993C108.682 20.9475 109.19 18.751 110.206 16.9098C111.222 15.0686 112.667 13.6635 114.54 12.6945C116.445 11.6931 118.668 11.1925 121.208 11.1925C122.192 11.1925 123.24 11.3217 124.352 11.5801C125.495 11.8062 126.59 12.21 127.638 12.7914C128.432 13.179 128.924 13.7281 129.114 14.4388C129.305 15.1171 129.257 15.7954 128.972 16.4738C128.718 17.1521 128.289 17.6528 127.686 17.9758C127.114 18.2665 126.431 18.2019 125.638 17.782C124.367 17.1036 123.129 16.7645 121.923 16.7645C120.049 16.7645 118.589 17.362 117.541 18.5572C116.525 19.7201 116.017 21.3836 116.017 23.5478C116.017 25.6797 116.525 27.3594 117.541 28.5868C118.589 29.782 120.049 30.3795 121.923 30.3795C122.494 30.3795 123.097 30.3149 123.732 30.1857C124.367 30.0242 125.003 29.7658 125.638 29.4105C126.431 28.9906 127.114 28.9421 127.686 29.2651C128.289 29.5882 128.702 30.0888 128.924 30.7672C129.146 31.4132 129.162 32.0915 128.972 32.8022C128.781 33.5128 128.305 34.0619 127.543 34.4495C126.463 34.9987 125.384 35.3863 124.304 35.6124C123.224 35.8708 122.192 36 121.208 36Z" fill="#2B2D3E"></path> <path d="M136.388 7.31629C135.054 7.31629 134.022 7.00942 133.292 6.39569C132.593 5.74967 132.244 4.84522 132.244 3.68237C132.244 2.48722 132.593 1.58277 133.292 0.969046C134.022 0.323015 135.054 0 136.388 0C139.118 0 140.484 1.22746 140.484 3.68237C140.484 6.10498 139.118 7.31629 136.388 7.31629ZM136.388 35.8546C135.213 35.8546 134.308 35.5155 133.673 34.8371C133.07 34.1265 132.768 33.1413 132.768 31.8816V15.3109C132.768 12.6299 133.974 11.2894 136.388 11.2894C137.531 11.2894 138.404 11.6447 139.007 12.3553C139.642 13.0336 139.96 14.0188 139.96 15.3109V31.8816C139.96 33.1413 139.658 34.1265 139.055 34.8371C138.452 35.5155 137.563 35.8546 136.388 35.8546Z" fill="#2B2D3E"></path> <path d="M156.951 36C154.443 36 152.252 35.4993 150.378 34.498C148.537 33.4643 147.108 32.0269 146.092 30.1857C145.076 28.3122 144.568 26.0996 144.568 23.5478C144.568 21.0283 145.076 18.8479 146.092 17.0067C147.108 15.1332 148.537 13.6958 150.378 12.6945C152.252 11.6931 154.443 11.1925 156.951 11.1925C159.46 11.1925 161.635 11.6931 163.476 12.6945C165.35 13.6958 166.794 15.1332 167.811 17.0067C168.858 18.8479 169.382 21.0283 169.382 23.5478C169.382 26.0996 168.858 28.3122 167.811 30.1857C166.794 32.0269 165.35 33.4643 163.476 34.498C161.635 35.4993 159.46 36 156.951 36ZM156.951 30.5249C158.475 30.5249 159.714 29.9596 160.666 28.8291C161.651 27.6985 162.143 25.9381 162.143 23.5478C162.143 21.1898 161.651 19.4616 160.666 18.3634C159.714 17.2328 158.475 16.6676 156.951 16.6676C155.427 16.6676 154.189 17.2328 153.236 18.3634C152.284 19.4616 151.807 21.1898 151.807 23.5478C151.807 25.9381 152.284 27.6985 153.236 28.8291C154.189 29.9596 155.427 30.5249 156.951 30.5249Z" fill="#2B2D3E"></path> <path d="M176.735 35.7093C175.465 35.7093 174.449 35.3217 173.687 34.5464C172.957 33.7712 172.592 32.7699 172.592 31.5424C172.592 30.3472 172.957 29.3782 173.687 28.6353C174.449 27.86 175.465 27.4724 176.735 27.4724C178.006 27.4724 178.99 27.86 179.688 28.6353C180.419 29.3782 180.784 30.3472 180.784 31.5424C180.784 32.7699 180.419 33.7712 179.688 34.5464C178.99 35.3217 178.006 35.7093 176.735 35.7093Z" fill="#2B2D3E"></path> </svg> 