<?xml version="1.0" encoding="UTF-8"?> <svg xmlns="http://www.w3.org/2000/svg" width="52" height="58" viewBox="0 0 52 58" fill="none"> <path fill-rule="evenodd" clip-rule="evenodd" d="M45.0587 54.7702C41.9145 56.3322 32.5711 49.962 29.6616 48.36C25.4199 46.0243 25.4432 46.0244 21.1428 43.7626C17.9587 42.0879 14.3979 40.4908 11.6283 38.189C10.8637 37.5534 9.11409 35.7756 8.67965 35.339C6.25233 32.8997 3.42266 30.042 2.95375 26.4613C2.63682 24.0408 5.07834 22.374 7.04905 21.4658C11.786 19.2828 17.1798 20.274 21.5369 22.5811C23.9235 23.8448 25.9056 25.5835 28.0179 27.2262C28.5911 27.6719 29.1781 28.1004 29.757 28.5391C30.0173 28.7365 30.2695 28.9443 30.5355 29.1343C30.708 29.2577 30.8787 29.3873 31.0713 29.4787C31.1502 29.516 31.3159 29.598 31.3339 29.5127C31.4147 29.1274 31.34 28.7295 31.3103 28.3403C31.1987 26.8839 30.8316 24.8371 30.6863 23.5084C30.5709 22.4521 30.5252 20.7859 30.6164 19.7348C30.7364 18.3534 30.8649 16.9694 31.1048 15.5997C31.3448 14.2286 31.6989 12.875 32.0539 11.5249C32.2214 10.8874 32.4439 10.2629 32.6708 9.64179C33.6554 6.94628 35.3953 3.5629 38.6214 3.03722C42.3685 2.42655 44.996 6.1485 46.2332 9.04756C46.6564 10.0393 47.0612 11.0417 47.3855 12.0707C50.4719 21.8635 49.5294 32.45 48.0598 42.543C47.8544 43.9532 47.032 53.7892 45.0587 54.7702Z" stroke="white" stroke-width="4" stroke-miterlimit="1.5" stroke-linecap="round" stroke-linejoin="round"></path> </svg> 