<?xml version="1.0" encoding="UTF-8"?> <svg xmlns="http://www.w3.org/2000/svg" width="767" height="344" viewBox="0 0 767 344" fill="none"> <path d="M23.4313 88.8172C52.1183 67.0822 82.2385 44.515 111.391 43.378C124.713 42.7296 137.37 47.8186 148.474 58.2881C158.875 68.2523 168.196 81.2124 177.893 93.0989C187.589 104.985 198.039 116.18 209.809 121.368C221.396 126.428 234.063 125.262 246.596 117.984C271.411 103.797 293.891 71.2402 318.665 56.6174C331.74 49.0324 344.962 46.8123 357.419 50.1097C369.877 53.4072 381.273 62.144 390.823 75.718C400.916 90.3033 409.222 108.848 420.754 119.857C431.6 130.287 444.014 135.346 457.091 134.667C469.914 133.985 483.063 127.676 495.577 116.201C507.087 105.647 517.494 90.4135 527.876 75.4748C537.584 61.5034 547.712 46.4971 558.723 38.0581C571.247 28.434 582.988 29.5507 593.887 37.5317C605.556 46.0462 615.402 60.9949 625.39 74.2764C636.012 88.6088 647.535 100.624 659.801 110.156C684.165 128.721 711.332 136.162 739.534 131.995C746.757 130.864 754.018 129.004 761.289 126.424C765.636 124.926 767.547 113.675 766.864 107.333C766.504 103.534 765.422 100.377 763.811 98.4231C762.199 96.4689 760.162 95.8437 758.061 96.6581C730.038 106.129 702.497 103.553 677.445 89.118C664.97 82.0205 653.247 71.9667 642.503 59.1523C631.8 46.4028 622.062 31.1377 611.046 19.2389C600.03 7.34021 587.453 -1.79222 573.497 0.298296C561.398 1.97711 549.553 11.825 538.485 25.3488C527.417 38.8727 517.731 54.401 507.247 68.4994C496.355 83.1712 485.207 94.4686 472.885 100.251C460.642 105.753 448.472 105.49 437.449 99.4844C425.695 93.0748 417.079 79.0522 408.334 64.3838C398.492 47.8149 388.021 34.0717 375.087 26.1147C362.831 18.5958 349.433 16.2312 335.663 19.1566C322.647 22.1907 309.558 29.6073 296.993 41.0695C284.937 51.7488 273.244 64.5272 261.204 75.2087C249.804 85.3148 237.819 93.6227 226.072 94.0263C214.326 94.4299 203.828 86.536 194.39 76.5361C173.482 54.0803 155.596 22.5404 130.13 15.1789C101.802 7.00223 71.3035 22.806 42.1381 43.187C34.837 48.3553 27.4921 53.8482 20.1385 59.4063C10.56 66.6491 14.4582 95.9761 23.3623 89.2047L23.4313 88.8172Z" fill="white" fill-opacity="0.6"></path> <path d="M16.1521 173.872C44.839 152.137 74.9592 129.57 104.112 128.433C117.434 127.785 130.091 132.874 141.195 143.343C151.596 153.307 160.917 166.267 170.613 178.154C180.31 190.04 190.76 201.235 202.53 206.423C214.116 211.483 226.784 210.317 239.317 203.039C264.132 188.852 286.612 156.295 311.386 141.672C324.461 134.087 337.683 131.867 350.14 135.164C362.597 138.462 373.994 147.199 383.544 160.772C393.637 175.358 401.943 193.902 413.475 204.912C424.321 215.341 436.734 220.401 449.812 219.721C462.635 219.039 475.784 212.73 488.298 201.256C499.808 190.701 510.214 175.468 520.597 160.529C530.305 146.558 540.432 131.552 551.443 123.113C563.968 113.489 575.708 114.606 586.607 122.587C598.277 131.101 608.123 146.05 618.11 159.331C628.733 173.664 640.256 185.679 652.522 195.211C676.885 213.776 704.053 221.217 732.254 217.05C739.477 215.919 746.739 214.059 754.01 211.479C758.357 209.98 760.267 198.729 759.585 192.388C759.225 188.589 758.143 185.432 756.532 183.478C754.92 181.524 752.883 180.898 750.782 181.713C722.759 191.183 695.218 188.607 670.165 174.173C657.69 167.075 645.968 157.021 635.224 144.207C624.52 131.457 614.782 116.193 603.766 104.294C592.75 92.3952 580.173 83.2623 566.218 85.3529C554.097 87.1941 542.273 96.8795 531.206 110.403C520.138 123.927 510.452 139.456 499.968 153.554C489.076 168.226 477.928 179.523 465.628 185.144C453.384 190.645 441.215 190.382 430.192 184.377C418.437 177.967 409.821 163.945 401.077 149.276C391.234 132.707 380.764 118.964 367.83 111.007C355.574 103.488 342.176 101.124 328.405 104.049C315.39 107.083 302.301 114.5 289.735 125.962C277.68 136.641 265.986 149.42 253.947 160.101C242.546 170.207 230.562 178.515 218.815 178.919C207.069 179.322 196.571 171.428 187.132 161.428C166.224 138.973 148.338 107.433 122.873 100.071C94.5443 91.8946 64.0461 107.698 34.9026 127.917C27.6014 133.085 20.2566 138.578 12.9029 144.136C3.3244 151.379 7.22261 180.706 16.1267 173.935L16.1521 173.872Z" fill="white" fill-opacity="0.6"></path> <path d="M8.83961 297.943C37.5266 276.208 67.6468 253.641 96.7991 252.504C110.122 251.855 122.779 256.944 133.882 267.414C144.284 277.378 153.604 290.339 163.301 302.225C172.997 314.112 183.447 325.306 195.218 330.494C206.804 335.554 219.471 334.389 232.005 327.111C256.819 312.923 279.3 280.366 304.074 265.744C317.149 258.159 330.37 255.938 342.828 259.236C355.285 262.533 366.681 271.27 376.231 284.844C386.325 299.429 394.63 317.974 406.162 328.983C417.009 339.413 429.422 344.472 442.5 343.793C455.322 343.111 468.471 336.801 480.985 325.327C492.496 314.773 502.902 299.539 513.285 284.601C522.992 270.629 533.12 255.623 544.131 247.184C556.656 237.56 568.396 238.677 579.295 246.658C590.965 255.172 600.81 270.121 610.798 283.403C621.42 297.735 632.944 309.75 645.209 319.282C669.573 337.847 696.74 345.288 724.942 341.121C732.165 339.99 739.426 338.13 746.698 335.55C751.044 334.051 752.955 322.801 752.272 316.459C751.913 312.66 750.831 309.503 749.219 307.549C747.608 305.595 745.571 304.97 743.469 305.784C715.446 315.255 687.905 312.679 662.853 298.244C650.378 291.146 638.655 281.093 627.911 268.278C617.208 255.529 607.47 240.264 596.454 228.365C585.438 216.466 572.861 207.334 558.906 209.424C546.806 211.103 534.961 220.951 523.893 234.475C512.826 247.999 503.14 263.527 492.655 277.625C481.763 292.297 470.615 303.594 458.294 309.377C446.05 314.879 433.881 314.616 422.858 308.611C411.103 302.201 402.487 288.178 393.743 273.51C383.9 256.941 373.429 243.198 360.496 235.241C348.239 227.722 334.841 225.357 321.071 228.282C308.055 231.317 294.967 238.733 282.401 250.195C270.345 260.875 258.652 273.653 246.613 284.335C235.212 294.441 223.227 302.749 211.481 303.152C199.734 303.556 189.236 295.662 179.798 285.662C158.89 263.206 141.004 231.667 115.539 224.305C87.21 216.128 56.7118 231.932 27.5683 252.151C20.2671 257.319 12.9223 262.812 5.56866 268.37C-4.00988 275.613 -0.111669 304.94 8.79241 298.168L8.83961 297.943Z" fill="white" fill-opacity="0.6"></path> </svg> 