<?xml version="1.0" encoding="UTF-8"?> <svg xmlns="http://www.w3.org/2000/svg" width="491" height="511" viewBox="0 0 491 511" fill="none"> <path d="M84.6985 7.83415C75.0555 19.0552 85.5733 41.4923 92.068 55.3472C93.2083 57.7799 94.2248 59.9483 94.9862 61.7446C117.376 114.57 134.542 135.13 133.804 139.746C133.019 144.651 112.012 131.549 55.5641 120.028C53.7544 119.659 51.5472 119.112 49.0706 118.498C34.9666 115.002 12.126 109.34 4.213 122.018C1.00749 127.154 -0.803459 130.832 0.349961 137.941C2.25821 149.703 10.6245 159.107 22.3831 164.993C65.9405 186.797 117.608 186.243 152.236 170.607C157.552 176.779 166.262 183.642 171.901 189.808C188.097 207.518 204.359 225.24 220.562 242.997C196.049 240.128 173.988 241.056 149.9 241.216C122.111 241.4 93.9995 242.268 71.5521 248.226C56.276 252.28 33.596 258.863 34.8659 270.356C36.0706 281.259 50.3948 293.966 72.3174 300.115C99.4343 307.721 138.302 309.067 162.176 306.549C192.46 303.355 220.609 286.058 235.517 262.606C244.745 272.417 266.925 291.004 276.546 300.543C294.884 318.724 305.418 330.859 318.831 346.148C303.118 343.494 260.349 338.61 228.289 341.642C226.616 341.8 224.546 341.891 222.223 341.993C208.996 342.576 187.575 343.519 184.646 359.258C183.46 365.634 183.027 370.053 186.203 377.189C191.456 388.995 201.551 396.367 213.49 399.009C261.003 409.525 308.663 390.046 332.37 359.496C349.896 381.337 365.695 398.881 401.859 427.719C382.788 425.13 363.091 427.667 345.78 429.595C338.59 430.395 331.398 431.196 323.901 431.619C292.488 433.39 260.749 435.974 235.704 444.179C218.66 449.762 193.388 458.708 195.477 472.039C197.458 484.686 214.378 498.704 239.517 504.647C272.164 512.366 312.613 511.717 341.495 507.121C365.815 503.251 392.782 488.453 407.138 471.039C408.33 469.594 409.549 468.164 410.765 466.737C415.384 461.317 420.97 455.867 423.296 448.649C430.058 455.206 473.742 493.089 480.999 496.091C484.786 497.657 487.67 496.995 490.136 492.178C491.458 489.595 490.585 488.743 474.681 472.585C464.514 462.884 452.013 450.902 442.218 441.451C448.583 438.19 453.212 432.404 457.913 427.342C459.188 425.969 460.466 424.594 461.76 423.245C477.665 406.671 489.194 378.681 490.7 353.022C491.608 337.543 490.37 318.939 488.092 301.647C487.764 299.156 487.446 296.617 487.123 294.045C485.286 279.413 483.313 263.687 478.672 249.451C470.514 224.422 455.27 208.521 442.769 207.697C429.592 206.828 423.265 233.397 419.437 251.273C413.811 277.54 414.288 310.091 415.527 342.234C415.822 349.905 415.721 357.302 415.62 364.696C415.413 379.806 416.244 395.05 417.431 410.529C417.642 413.273 417.952 415.833 418.351 418.212C369.991 379.055 361.962 371.262 346.102 351.54C347.501 351.508 349.875 347.584 351.181 346.338C379.093 319.69 394.141 269.569 379.818 222.148C376.222 210.246 368.161 200.617 356.176 196.282C348.932 193.662 344.649 194.476 338.517 196.222C323.381 200.531 324.276 222.369 324.828 235.853C324.925 238.221 325.011 240.331 324.999 242.044C324.725 278.701 335.236 328.091 338.253 337.966C338.518 338.831 340.522 342.119 339.556 345.148C335.623 341.308 322.701 329.003 301.942 308.422C297.103 303.624 258.423 261.216 259.416 260.305C279.95 241.457 292.182 209.673 290.952 178.657C289.932 152.931 283.409 114.603 272.064 87.225C263.09 65.5685 248.941 52.6515 238.374 52.9608C227.236 53.2868 224.178 77.5286 222.48 93.8027C219.985 117.717 223.148 146.729 226.916 175.313C227.815 182.135 228.357 188.744 228.9 195.352C229.407 201.538 229.915 207.723 230.715 214.079C231.368 219.267 232.312 224.648 233.252 230C233.483 231.315 233.714 232.629 233.94 233.938C225.154 224.357 216.427 214.678 207.629 204.921C199.457 195.859 191.225 186.729 182.83 177.549C176.77 170.923 171.045 164.27 165.1 157.361C164.375 156.509 163.64 155.664 162.91 154.816C170.536 114.752 159.147 58.3149 127.981 16.6229C119.87 5.77186 109.364 -0.720308 98.2401 0.0638248C91.5161 0.537769 88.6048 3.28858 84.6985 7.83415Z" fill="#E83655" fill-opacity="0.5"></path> </svg> 