<?xml version="1.0" encoding="UTF-8"?> <svg xmlns="http://www.w3.org/2000/svg" width="768" height="342" viewBox="0 0 768 342" fill="none"> <path d="M23.2929 87.9084C51.9906 66.3071 82.1222 43.8792 111.303 42.7721C124.638 42.138 137.312 47.2118 148.436 57.6376C158.856 67.56 168.196 80.4623 177.912 92.2967C187.629 104.131 198.098 115.278 209.885 120.449C221.487 125.493 234.166 124.344 246.706 117.113C271.533 103.018 294.01 70.6449 318.796 56.1167C331.878 48.5809 345.111 46.383 357.584 49.6741C370.056 52.9652 381.471 61.6673 391.042 75.1805C401.157 89.7005 409.487 108.158 421.04 119.121C431.905 129.507 444.336 134.551 457.426 133.886C470.26 133.218 483.418 126.952 495.935 115.546C507.448 105.054 517.852 89.907 528.233 75.0525C537.938 61.1598 548.064 46.2378 559.079 37.8506C571.608 28.2856 583.361 29.4065 594.278 37.3561C605.966 45.8372 615.834 60.7185 625.843 73.9411C636.488 88.2098 648.032 100.174 660.318 109.668C684.722 128.159 711.923 135.585 740.149 131.463C747.378 130.343 754.645 128.499 761.922 125.938C766.272 124.451 768.175 113.258 767.486 106.948C767.123 103.168 766.037 100.026 764.423 98.0807C762.808 96.1349 760.768 95.5112 758.666 96.3198C730.622 105.719 703.052 103.133 677.962 88.7508C665.469 81.6789 653.726 71.6662 642.96 58.9078C632.236 46.2139 622.475 31.0178 611.439 19.1701C600.402 7.32245 587.804 -1.77423 573.837 0.294119C561.726 1.95438 549.878 11.7426 538.81 25.1889C527.743 38.6351 518.06 54.0769 507.577 68.0952C496.686 82.6837 485.536 93.9147 473.207 99.6578C460.956 105.122 448.774 104.849 437.735 98.8654C425.963 92.4785 417.327 78.5197 408.562 63.9182C398.695 47.4251 388.203 33.7427 375.25 25.8151C362.975 18.3241 349.561 15.9603 335.779 18.8595C322.753 21.8675 309.657 29.2357 297.089 40.6294C285.03 51.2447 273.336 63.9487 261.293 74.5662C249.889 84.6117 237.899 92.8676 226.141 93.2594C214.384 93.6512 203.869 85.7886 194.412 75.8314C173.465 53.4718 155.535 22.0766 130.038 14.7312C101.674 6.57238 71.1582 22.2708 41.9806 42.5245C34.6764 47.6606 27.3287 53.1196 19.9724 58.6435C10.3902 65.8417 14.3167 95.0236 23.2241 88.2939L23.2929 87.9084Z" fill="white" fill-opacity="0.6"></path> <path d="M16.0766 172.527C44.7742 150.926 74.9058 128.498 104.086 127.391C117.422 126.757 130.096 131.831 141.219 142.257C151.639 152.179 160.98 165.081 170.696 176.916C180.412 188.75 190.882 199.897 202.669 205.068C214.271 210.112 226.95 208.963 239.49 201.732C264.317 187.637 286.793 155.264 311.58 140.736C324.662 133.2 337.895 131.002 350.367 134.293C362.84 137.584 374.255 146.286 383.826 159.799C393.941 174.319 402.27 192.777 413.823 203.74C424.689 214.126 437.119 219.17 450.209 218.505C463.044 217.837 476.201 211.571 488.718 200.164C500.231 189.673 510.635 174.526 521.016 159.671C530.722 145.778 540.847 130.857 551.862 122.47C564.392 112.905 576.145 114.026 587.061 121.975C598.75 130.456 608.618 145.338 618.626 158.56C629.271 172.829 640.816 184.793 653.102 194.287C677.505 212.778 704.706 220.204 732.933 216.082C740.162 214.962 747.429 213.118 754.705 210.556C759.055 209.069 760.958 197.877 760.27 191.567C759.907 187.787 758.821 184.645 757.206 182.7C755.592 180.754 753.552 180.13 751.449 180.938C723.406 190.338 695.835 187.752 670.746 173.369C658.252 166.298 646.509 156.285 635.744 143.526C625.019 130.833 615.259 115.637 604.222 103.789C593.185 91.9415 580.588 82.8445 566.621 84.9128C554.488 86.7346 542.661 96.3613 531.594 109.808C520.526 123.254 510.844 138.696 500.36 152.714C489.47 167.303 478.32 178.534 466.012 184.115C453.761 189.579 441.579 189.307 430.54 183.323C418.768 176.936 410.132 162.977 401.367 148.376C391.501 131.882 381.008 118.2 368.055 110.272C355.78 102.781 342.366 100.418 328.585 103.317C315.559 106.325 302.463 113.693 289.894 125.087C277.835 135.702 266.141 148.406 254.098 159.024C242.695 169.069 230.705 177.325 218.947 177.717C207.189 178.109 196.674 170.246 187.218 160.289C166.27 137.929 148.34 106.534 122.843 99.1885C94.4793 91.0297 63.9637 106.728 34.8077 126.82C27.5035 131.956 20.1558 137.416 12.7995 142.94C3.21735 150.138 7.14382 179.32 16.0512 172.59L16.0766 172.527Z" fill="white" fill-opacity="0.6"></path> <path d="M8.86023 295.964C37.5579 274.363 67.6896 251.935 96.8702 250.828C110.206 250.193 122.879 255.267 134.003 265.693C144.423 275.615 153.764 288.518 163.48 300.353C173.196 312.187 183.666 323.333 195.452 328.505C207.054 333.549 219.733 332.4 232.273 325.169C257.101 311.074 279.577 278.701 304.363 264.173C317.445 256.637 330.678 254.438 343.151 257.73C355.623 261.021 367.039 269.723 376.61 283.236C386.725 297.756 395.054 316.214 406.607 327.177C417.473 337.563 429.903 342.607 442.993 341.942C455.828 341.274 468.985 335.007 481.502 323.601C493.015 313.11 503.419 297.962 513.8 283.108C523.506 269.215 533.631 254.294 544.646 245.906C557.175 236.341 568.928 237.462 579.845 245.412C591.533 253.893 601.401 268.774 611.41 281.997C622.055 296.266 633.6 308.229 645.885 317.723C670.289 336.214 697.49 343.64 725.716 339.518C732.946 338.399 740.213 336.555 747.489 333.993C751.839 332.506 753.742 321.314 753.054 315.004C752.69 311.224 751.605 308.082 749.99 306.136C748.375 304.19 746.336 303.567 744.233 304.375C716.189 313.775 688.619 311.189 663.529 296.806C651.036 289.734 639.293 279.722 628.528 266.963C617.803 254.269 608.043 239.073 597.006 227.226C585.969 215.378 573.372 206.281 559.404 208.35C547.294 210.01 535.445 219.798 524.378 233.244C513.31 246.691 503.627 262.132 493.144 276.151C482.253 290.739 471.103 301.97 458.774 307.713C446.523 313.177 434.341 312.905 423.302 306.921C411.53 300.534 402.894 286.575 394.129 271.974C384.263 255.481 373.77 241.798 360.817 233.871C348.542 226.38 335.128 224.016 321.347 226.915C308.321 229.923 295.225 237.291 282.656 248.685C270.597 259.3 258.903 272.004 246.86 282.622C235.457 292.667 223.467 300.923 211.709 301.315C199.951 301.707 189.436 293.844 179.98 283.887C159.032 261.527 141.102 230.132 115.605 222.787C87.2412 214.628 56.7256 230.327 27.5697 250.419C20.2655 255.555 12.9178 261.014 5.56144 266.538C-4.02068 273.736 -0.09421 302.918 8.81317 296.188L8.86023 295.964Z" fill="white" fill-opacity="0.6"></path> </svg> 