<?xml version="1.0" encoding="UTF-8"?> <svg xmlns="http://www.w3.org/2000/svg" width="219" height="244" viewBox="0 0 219 244" fill="none"> <path fill-rule="evenodd" clip-rule="evenodd" d="M183.905 235.212C169.79 241.176 130.791 210.929 118.545 203.172C100.691 191.864 100.793 191.87 82.6639 180.868C69.241 172.722 54.1561 164.813 42.7066 154.045C39.5454 151.072 32.399 142.86 30.6232 140.842C20.7013 129.567 9.13841 116.362 8.0528 100.638C7.31913 90.0094 18.4004 83.4011 27.228 79.9715C48.4468 71.728 71.6782 77.4876 90.042 88.7024C100.101 94.8452 108.27 102.949 117.033 110.67C119.411 112.764 121.854 114.788 124.258 116.854C125.34 117.783 126.382 118.756 127.49 119.655C128.209 120.238 128.918 120.849 129.733 121.298C130.066 121.482 130.766 121.883 130.867 121.516C131.322 119.86 131.103 118.106 131.078 116.403C130.981 110.029 129.929 101.014 129.651 95.1872C129.431 90.5551 129.677 83.2842 130.355 78.7301C131.247 72.7444 132.177 66.7497 133.588 60.8472C135 54.9385 136.904 49.1365 138.811 43.35C139.712 40.6177 140.848 37.957 142.002 35.3117C147.012 23.8327 155.495 9.55894 169.689 8.13124C186.176 6.4726 196.627 23.3885 201.242 36.3481C202.82 40.7813 204.316 45.2562 205.454 49.8256C216.281 93.3103 209.346 139.175 200.246 182.75C198.975 188.838 192.763 231.466 183.905 235.212Z" stroke="white" stroke-width="4" stroke-miterlimit="1.5" stroke-linecap="round" stroke-linejoin="round"></path> </svg> 