<?xml version="1.0" encoding="UTF-8"?> <svg xmlns="http://www.w3.org/2000/svg" width="536" height="519" viewBox="0 0 536 519" fill="none"> <path fill-rule="evenodd" clip-rule="evenodd" d="M17.4228 331.862C-43.2532 206.089 64.2866 79.4947 189.969 18.8625C283.907 -26.4559 386.762 37.7982 432.113 131.804C493.163 258.352 544.317 430.242 417.86 491.248C266.325 564.353 90.5799 483.506 17.4228 331.862Z" fill="#C6C5C5"></path> <path fill-rule="evenodd" clip-rule="evenodd" d="M57.4597 327.858C-3.21627 202.086 104.324 75.4911 230.005 14.8588C323.944 -30.4596 426.799 33.7945 472.15 127.801C533.2 254.348 584.354 426.239 457.897 487.245C306.362 560.349 130.617 479.502 57.4597 327.858Z" fill="#E83655"></path> <path d="M317.403 328.72C324.407 328.72 329.361 329.574 332.265 331.282C335.339 332.819 337.389 335.296 338.414 338.713C339.439 341.959 339.952 346.315 339.952 351.781C339.952 357.077 339.354 361.347 338.158 364.593C337.133 367.838 335.339 370.059 332.777 371.255C329.019 373.305 323.723 374.33 316.89 374.33H216.702C210.552 374.33 205.257 372.024 200.815 367.411C196.374 362.799 194.153 357.418 194.153 351.268C194.153 342.044 197.313 333.588 203.634 325.901C210.125 318.043 217.898 311.381 226.951 305.915C236.005 300.277 245.059 294.811 254.112 289.516C263.166 284.049 270.853 277.9 277.174 271.067C283.665 264.234 286.911 256.974 286.911 249.286C286.911 247.749 286.313 245.614 285.117 242.881C283.921 239.977 282.555 237.67 281.017 235.962C279.651 234.083 277.43 232.375 274.355 230.837C271.28 229.3 267.01 228.531 261.543 228.531C256.077 228.531 251.294 230.581 247.194 234.681C243.265 238.61 241.044 242.539 240.532 246.468L239.507 252.361V253.899C239.507 257.657 239.336 260.475 238.995 262.355C238.824 264.234 238.055 266.369 236.688 268.76C234.126 272.86 227.464 274.91 216.702 274.91C204.744 274.91 197.655 271.664 195.434 265.173C194.58 262.44 194.153 258.084 194.153 252.105C194.153 234.339 200.474 218.453 213.115 204.445C225.927 190.267 242.582 183.178 263.081 183.178C283.75 183.178 300.491 190.352 313.303 204.701C326.115 218.88 332.521 235.108 332.521 253.386C332.521 263.123 330.385 272.348 326.115 281.06C321.844 289.772 316.72 296.776 310.741 302.071C298.1 313.346 286.825 320.947 276.918 324.876L270.512 327.439V328.72H317.403Z" fill="white"></path> </svg> 