<?xml version="1.0" encoding="UTF-8"?> <svg xmlns="http://www.w3.org/2000/svg" width="167" height="162" viewBox="0 0 167 162" fill="none"> <path d="M2.37662 129.798C5.89675 133.369 13.8482 130.384 18.7582 128.541C19.6203 128.217 20.3888 127.929 21.0229 127.717C39.6709 121.495 47.1877 116.202 48.7346 116.574C50.3785 116.97 45.28 123.763 39.6338 142.64C39.4528 143.246 39.1991 143.981 38.9145 144.807C37.2937 149.507 34.669 157.119 38.7376 160.14C40.3858 161.364 41.5808 162.076 44.0336 161.87C48.0914 161.531 51.5454 158.935 53.9069 155.094C62.655 140.867 64.049 123.297 59.7929 111.121C62.0545 109.477 64.6549 106.698 66.9241 104.944C73.4422 99.9052 79.9664 94.845 86.5005 89.8055C84.7744 98.059 84.4139 105.579 83.7306 113.768C82.9423 123.214 82.3761 132.788 83.7145 140.572C84.6254 145.868 86.1691 153.747 90.1158 153.617C93.86 153.494 98.6196 148.96 101.382 141.673C104.799 132.659 106.447 119.488 106.322 111.31C106.163 100.937 101.144 90.9193 93.6263 85.2389C97.2451 82.3607 104.245 75.3122 107.783 72.2937C114.527 66.5399 118.976 63.2792 124.585 59.123C123.201 64.3921 120.231 78.7957 120.279 89.7682C120.282 90.3407 120.25 91.0465 120.213 91.8383C120.006 96.3477 119.671 103.651 124.933 105.059C127.065 105.629 128.554 105.892 131.078 105C135.253 103.525 138.069 100.289 139.333 96.3013C144.364 80.434 139.2 63.7294 129.539 54.8729C137.502 49.4914 143.951 44.5836 154.865 33.0528C153.4 39.4646 153.66 46.2237 153.785 52.1559C153.837 54.6199 153.889 57.0845 153.803 59.6429C153.443 70.3624 153.35 81.2142 155.372 89.9389C156.749 95.8763 159.017 104.698 163.614 104.338C167.975 103.996 173.259 98.6152 176.05 90.2296C179.675 79.3398 180.693 65.5794 180.015 55.6458C179.444 47.2809 175.238 37.7304 169.757 32.3955C169.302 31.9528 168.853 31.5012 168.405 31.0503C166.703 29.3389 165.021 27.2978 162.638 26.3182C165.075 24.1927 179.294 10.3442 180.537 7.9571C181.186 6.71167 181.049 5.71422 179.487 4.75012C178.649 4.23329 178.332 4.50757 172.351 9.4873C168.741 12.6871 164.284 16.6202 160.77 19.7003C159.856 17.452 158.031 15.7275 156.454 13.9975C156.026 13.5282 155.597 13.058 155.178 12.5828C150.03 6.74393 140.865 2.09246 132.186 0.907728C126.951 0.19306 120.587 0.125443 114.638 0.445755C113.781 0.491893 112.908 0.533551 112.023 0.575761C106.991 0.815838 101.584 1.07387 96.6007 2.27705C87.8402 4.39239 81.9666 9.15465 81.3034 13.3804C80.6044 17.8347 89.4449 20.6814 95.4059 22.4512C104.165 25.0519 115.248 25.7438 126.216 26.1661C128.833 26.2669 131.345 26.4954 133.856 26.7238C138.988 27.1906 144.197 27.3081 149.496 27.3107C150.436 27.3112 151.316 27.2729 152.137 27.1999C137.341 42.6037 134.445 45.1273 127.254 49.9987C127.286 49.5223 126.024 48.6127 125.64 48.1364C117.434 37.9537 100.853 31.5258 84.2893 35.1484C80.1319 36.0577 76.6109 38.5441 74.7698 42.5025C73.657 44.8952 73.8025 46.3717 74.2084 48.5008C75.2102 53.7566 82.663 54.0256 87.265 54.1918C88.0731 54.221 88.7933 54.247 89.3752 54.2962C101.831 55.3508 118.947 53.0754 122.398 52.3093C122.7 52.2421 123.879 51.6474 124.88 52.0551C123.454 53.2906 118.874 57.3584 111.24 63.8715C109.46 65.3899 93.8554 77.4196 93.5758 77.0583C87.796 69.587 77.3632 64.5971 66.7789 64.2012C58.0001 63.8729 44.7676 65.0834 35.1108 68.2198C27.472 70.7008 22.6465 75.1694 22.428 78.7677C22.1977 82.5606 30.347 84.2356 35.8287 85.2395C43.8838 86.7147 53.8457 86.4013 63.6805 85.871C66.0277 85.7445 68.2918 85.7336 70.5553 85.7227C72.6742 85.7124 74.7928 85.7022 76.9786 85.5972C78.7625 85.5114 80.6211 85.3316 82.4699 85.1528C82.9242 85.1089 83.3781 85.065 83.8299 85.0225C80.3033 87.7562 76.7447 90.4676 73.1575 93.2009C69.8258 95.7395 66.4693 98.297 63.0907 100.909C60.6519 102.794 58.2142 104.564 55.6829 106.403C55.3712 106.627 55.0612 106.854 54.7505 107.08C41.3611 103.438 21.8219 105.827 6.69077 115.323C2.75263 117.794 0.223325 121.193 0.149228 124.993C0.104436 127.29 0.95063 128.352 2.37662 129.798Z" fill="#E83655" fill-opacity="0.1"></path> </svg> 