<?xml version="1.0" encoding="UTF-8"?> <svg xmlns="http://www.w3.org/2000/svg" width="52" height="83" viewBox="0 0 52 83" fill="none"> <path d="M23.6474 0.797049C21.8199 1.41138 21.5033 4.62481 21.3077 6.60909C21.2734 6.95749 21.2428 7.26805 21.2084 7.51994C20.1972 14.9275 20.7501 18.3735 20.3599 18.8412C19.9452 19.3383 18.4654 16.4717 12.911 11.4214C12.7329 11.2595 12.5222 11.0512 12.2857 10.8174C10.939 9.48638 8.75818 7.33084 7.02745 8.22362C6.32634 8.58529 5.87855 8.87653 5.53416 9.74956C4.96439 11.1939 5.27493 12.8044 6.19973 14.2469C9.62547 19.5902 15.4488 22.9698 20.3685 23.5253C20.5527 24.5707 21.071 25.9194 21.2918 26.9856C21.926 30.0479 22.5667 33.1159 23.1985 36.1838C20.6442 34.2297 18.1118 32.864 15.4034 31.2774C12.279 29.447 9.07288 27.6716 6.16205 26.8436C4.18114 26.2801 1.20262 25.5066 0.579297 26.8783C-0.0120358 28.1796 0.745709 30.5569 2.7913 32.7058C5.32157 35.364 9.58481 38.1038 12.4263 39.4121C16.0307 41.0716 20.3353 41.0095 23.5671 39.3761C23.9471 41.0896 25.193 44.6487 25.6351 46.3578C26.4777 49.6156 26.8491 51.6763 27.3328 54.282C25.7499 52.9381 21.2853 49.5422 17.4929 47.7461C17.295 47.6524 17.0571 47.5247 16.7902 47.3815C15.27 46.5656 12.8082 45.2444 11.4317 46.8119C10.8741 47.447 10.5314 47.9131 10.4116 48.9238C10.2135 50.5959 10.8531 52.0939 12.0142 53.1852C16.6348 57.5278 23.2699 58.521 27.96 56.6788C28.4679 60.2922 29.0686 63.3094 31.1978 68.948C29.2344 67.3878 26.8595 66.3598 24.7924 65.4226C23.9338 65.0333 23.075 64.644 22.2072 64.1919C18.5712 62.2977 14.8445 60.473 11.4931 59.7236C9.21242 59.2135 5.78615 58.532 5.13209 60.1641C4.51159 61.7125 5.47276 64.4094 7.89227 66.7496C11.0343 69.7887 15.6076 72.4104 19.1483 73.8196C22.1298 75.0062 26.1356 75.1453 28.9034 74.1514C29.1331 74.0689 29.3649 73.9899 29.5962 73.9111C30.4745 73.6118 31.4631 73.3736 32.2044 72.7201C32.525 73.9048 34.8938 81.0574 35.5066 81.877C35.8263 82.3046 36.1935 82.4226 36.7905 82.0474C37.1105 81.8462 37.0696 81.6926 36.3647 78.8236C35.8724 77.0599 35.2704 74.8853 34.803 73.1744C35.7332 73.2331 36.6369 72.8935 37.5006 72.6398C37.7348 72.571 37.9696 72.502 38.2044 72.4372C41.0896 71.6405 44.2453 69.2738 46.1231 66.5004C47.2559 64.8274 48.3565 62.6614 49.2533 60.5731C49.3825 60.2723 49.5159 59.9667 49.6511 59.6571C50.4201 57.8961 51.2466 56.0034 51.6752 54.0999C52.4287 50.7534 51.7807 47.9572 50.4356 47.0322C49.0178 46.0571 46.5394 48.6112 44.9199 50.3582C42.5401 52.9252 40.4252 56.6025 38.4228 60.2848C37.9449 61.1636 37.4409 61.9852 36.937 62.8066C35.9073 64.485 34.985 66.2476 34.0869 68.0602C33.9277 68.3816 33.7919 68.689 33.678 68.982C30.8704 61.3753 30.4904 59.9676 30.0278 56.7024C30.1867 56.7921 30.7139 56.5108 30.9432 56.4582C35.8442 55.3331 40.8682 50.7223 42.4228 44.4573C42.813 42.8848 42.5516 41.2695 41.4981 39.9856C40.8613 39.2097 40.3275 39.0155 39.5245 38.8026C37.5423 38.277 36.1878 40.7822 35.3514 42.3292C35.2046 42.6008 35.0737 42.8429 34.9582 43.0339C32.4857 47.121 30.3729 53.3525 30.053 54.6594C30.025 54.7739 30.0305 55.2756 29.7205 55.5506C29.5358 54.8585 28.9083 52.6196 27.9544 48.9319C27.7321 48.0722 26.225 40.7463 26.3969 40.7104C29.9521 39.9674 33.4392 37.2226 35.3675 33.667C36.9669 30.718 38.7896 25.991 39.3427 22.1691C39.7802 19.146 39.056 16.7568 37.8521 16.0876C36.5829 15.3822 34.6257 17.8934 33.3515 19.6029C31.4791 22.1149 29.9007 25.5747 28.4186 29.0269C28.0649 29.8508 27.6854 30.6272 27.3059 31.4034C26.9508 32.1299 26.5956 32.8564 26.2618 33.6216C25.9894 34.246 25.7367 34.9116 25.4854 35.5736C25.4237 35.7363 25.362 35.8988 25.3001 36.0604C24.9544 34.4023 24.6217 32.7369 24.2863 31.0581C23.9748 29.4989 23.661 27.9281 23.3323 26.3407C23.095 25.195 22.8971 24.0685 22.6915 22.8988C22.667 22.7551 22.641 22.6115 22.6157 22.4679C26.1386 18.489 28.6224 11.4097 27.9093 4.66448C27.7237 2.90892 26.9796 1.48205 25.6815 0.828859C24.8969 0.434037 24.3876 0.548185 23.6474 0.797049Z" fill="#E83655" fill-opacity="0.7"></path> </svg> 