<?xml version="1.0" encoding="UTF-8"?> <svg xmlns="http://www.w3.org/2000/svg" width="152" height="125" viewBox="0 0 152 125" fill="none"> <path d="M2.61801 94.9135C5.13118 97.9927 11.561 96.2686 15.5314 95.2039C16.2285 95.017 16.8499 94.8504 17.3609 94.7337C32.3872 91.3019 38.6339 87.7309 39.8199 88.1439C41.0802 88.5827 36.6249 93.5208 30.9175 107.907C30.7345 108.368 30.4858 108.926 30.2067 109.552C28.6172 113.118 26.0433 118.892 29.0234 121.582C30.2306 122.672 31.1179 123.324 33.0526 123.354C36.2532 123.404 39.1347 121.634 41.2457 118.802C49.0652 108.31 51.3538 94.6189 48.8507 84.7235C50.7337 83.6085 52.9592 81.6284 54.8557 80.4277C60.303 76.9789 65.7566 73.5134 71.2165 70.065C69.3025 76.4129 68.5079 82.2913 67.4149 88.6695C66.154 96.0276 65.0584 103.503 65.5761 109.721C65.9285 113.952 66.6005 120.261 69.6998 120.467C72.6401 120.662 76.6761 117.472 79.3356 111.964C82.6253 105.151 84.8134 94.9349 85.2726 88.502C85.8552 80.342 82.6073 72.0822 77.1076 67.0341C80.1374 65.0558 86.0986 60.0658 89.0747 57.9709C94.7477 53.9779 98.4536 51.7639 103.129 48.9371C101.687 52.9677 98.3792 64.049 97.6699 72.6709C97.6329 73.1208 97.5594 73.6726 97.477 74.2917C97.0076 77.8174 96.2474 83.5271 100.272 85.0436C101.902 85.658 103.051 85.9806 105.088 85.4771C108.458 84.6442 110.883 82.3217 112.145 79.2887C117.165 67.2185 114.26 53.6953 107.298 45.9854C113.9 42.3798 119.285 39.0283 128.616 30.823C127.033 35.7447 126.775 41.0738 126.469 45.7429C126.342 47.6823 126.215 49.6221 125.973 51.6248C124.961 60.0162 124.149 68.5323 125.138 75.5427C125.811 80.3135 126.986 87.4191 130.61 87.495C134.049 87.567 138.553 83.7528 141.31 77.3843C144.89 69.1138 146.625 58.3854 146.771 50.5303C146.894 43.9158 144.251 36.0863 140.322 31.4685C139.996 31.0854 139.675 30.6956 139.355 30.3065C138.14 28.8296 136.962 27.0952 135.162 26.1399C137.215 24.6605 149.293 14.8928 150.429 13.1149C151.022 12.1873 150.983 11.3932 149.825 10.514C149.204 10.0427 148.938 10.2335 143.915 13.6781C140.87 15.9096 137.112 18.6512 134.15 20.7963C133.588 18.959 132.276 17.4621 131.159 15.9803C130.856 15.5783 130.552 15.1756 130.256 14.7696C126.623 9.78198 119.763 5.41361 113.048 3.806C108.997 2.83625 104.019 2.28668 99.3378 2.0741C98.6636 2.04348 97.9771 2.00809 97.2815 1.97223C93.3252 1.76826 89.073 1.54904 85.0891 2.10532C78.085 3.08333 73.1612 6.36553 72.354 9.63279C71.5031 13.0768 78.2317 16.0024 82.779 17.8575C89.4609 20.5835 98.0924 21.9916 106.652 23.179C108.695 23.4623 110.646 23.8377 112.597 24.2131C116.583 24.98 120.654 25.4787 124.804 25.8942C125.54 25.9678 126.231 26.0064 126.879 26.0132C114.244 36.9575 111.804 38.7137 105.841 41.9788C105.898 41.6071 104.972 40.7943 104.704 40.3903C98.9723 31.7522 86.4257 25.4099 73.2089 26.9631C69.8915 27.3529 66.9649 29.0311 65.2536 31.9966C64.2192 33.789 64.2325 34.9601 64.4053 36.664C64.8317 40.8702 70.6493 41.663 74.2416 42.1525C74.8724 42.2384 75.4346 42.315 75.8869 42.3991C85.569 44.1992 99.1268 43.7473 101.881 43.4147C102.122 43.3856 103.086 43.0105 103.842 43.4088C102.641 44.2679 98.7772 47.1056 92.3555 51.6256C90.8585 52.6793 77.8197 60.9105 77.6254 60.6049C73.6085 54.2858 65.779 49.5526 57.5179 48.416C50.666 47.4732 40.2217 47.3917 32.4462 49.1018C26.2956 50.4545 22.2124 53.5878 21.7962 56.397C21.3575 59.3581 27.6247 61.3094 31.8488 62.5256C38.0558 64.3126 45.8779 64.8436 53.6152 65.1944C55.4619 65.2782 57.2355 65.4462 59.0087 65.6142C60.6686 65.7715 62.3283 65.9288 64.047 66.0168C65.4498 66.0886 66.9174 66.0924 68.3773 66.0962C68.736 66.0971 69.0944 66.098 69.4511 66.0999C66.5034 67.9719 63.5321 69.8239 60.5369 71.6909C57.755 73.4249 54.9524 75.1718 52.1288 76.9595C50.0907 78.2499 48.0612 79.4503 45.9538 80.6969C45.6944 80.8487 45.4362 81.0031 45.1775 81.1563C34.941 77.251 19.478 77.6031 6.98249 83.8806C3.73033 85.5144 1.51816 87.9868 1.20121 90.9658C1.00963 92.7665 1.59994 93.6661 2.61801 94.9135Z" stroke="white" stroke-width="2" stroke-linecap="round"></path> </svg> 