<?xml version="1.0" encoding="UTF-8"?> <svg xmlns="http://www.w3.org/2000/svg" width="181" height="37" viewBox="0 0 181 37" fill="none"> <path d="M4.40373 36.7671C1.99053 36.7671 0.783936 35.5235 0.783936 33.0363V15.8358C0.783936 13.3808 1.95878 12.1534 4.30847 12.1534C6.65816 12.1534 7.833 13.3808 7.833 15.8358V16.0296C8.62682 14.7375 9.69053 13.7523 11.0241 13.074C12.3577 12.3956 13.8501 12.0565 15.5012 12.0565C18.2637 12.0565 20.3276 12.8802 21.693 14.5275C23.0584 16.1426 23.741 18.646 23.741 22.0376V33.0363C23.741 35.5235 22.5344 36.7671 20.1212 36.7671C18.9781 36.7671 18.0891 36.4441 17.454 35.7981C16.8507 35.152 16.5491 34.2314 16.5491 33.0363V22.3768C16.5491 20.7294 16.2474 19.5504 15.6441 18.8398C15.0408 18.0969 14.1518 17.7254 12.9769 17.7254C11.4528 17.7254 10.2303 18.2099 9.3095 19.179C8.42042 20.148 7.97589 21.4401 7.97589 23.0551V33.0363C7.97589 35.5235 6.78517 36.7671 4.40373 36.7671Z" fill="white"></path> <path d="M37.9293 36.864C34.9446 36.864 32.7378 36.0242 31.3089 34.3445C29.9118 32.6648 29.2133 30.1453 29.2133 26.786V15.8358C29.2133 13.3808 30.404 12.1534 32.7854 12.1534C35.1986 12.1534 36.4052 13.3808 36.4052 15.8358V26.9798C36.4052 29.79 37.5959 31.1951 39.9774 31.1951C41.3427 31.1951 42.4541 30.7106 43.3114 29.7415C44.2005 28.7402 44.645 27.432 44.645 25.8169V15.8358C44.645 13.3808 45.8357 12.1534 48.2172 12.1534C50.6304 12.1534 51.837 13.3808 51.837 15.8358V33.0363C51.837 35.5235 50.678 36.7671 48.36 36.7671C47.217 36.7671 46.3438 36.4441 45.7405 35.7981C45.1372 35.152 44.8355 34.2476 44.8355 33.0847C43.2796 35.6043 40.9776 36.864 37.9293 36.864Z" fill="white"></path> <path d="M69.0791 36.864C62.5063 36.864 59.2199 33.6177 59.2199 27.1251V18.0161H57.2195C55.3461 18.0161 54.4094 17.1117 54.4094 15.3028C54.4094 13.4616 55.3461 12.541 57.2195 12.541H59.2199V8.85863C59.2199 6.37142 60.4265 5.12781 62.8397 5.12781C65.2212 5.12781 66.4119 6.37142 66.4119 8.85863V12.541H70.9366C72.7783 12.541 73.6991 13.4616 73.6991 15.3028C73.6991 17.1117 72.7783 18.0161 70.9366 18.0161H66.4119V26.8344C66.4119 28.1911 66.7135 29.2086 67.3168 29.8869C67.9519 30.5652 68.9521 30.9044 70.3174 30.9044C70.7937 30.9044 71.2383 30.8559 71.651 30.759C72.0638 30.6621 72.4449 30.5975 72.7941 30.5652C73.2387 30.5329 73.6038 30.6783 73.8896 31.0013C74.1754 31.3243 74.3183 31.9865 74.3183 32.9878C74.3183 33.7954 74.1912 34.4899 73.9372 35.0713C73.6832 35.6204 73.2387 36.0242 72.6036 36.2826C72.1908 36.4441 71.6193 36.5733 70.889 36.6702C70.1904 36.7994 69.5871 36.864 69.0791 36.864Z" fill="white"></path> <path d="M80.7702 36.7671C78.2935 36.7671 77.0552 35.5235 77.0552 33.0363V15.8358C77.0552 13.3808 78.23 12.1534 80.5797 12.1534C82.9294 12.1534 84.1042 13.3808 84.1042 15.8358V16.7079C85.2473 13.8331 87.6129 12.2826 91.2009 12.0565C91.9948 11.9919 92.598 12.2018 93.0108 12.6864C93.4554 13.1386 93.6935 13.8977 93.7253 14.9636C93.7888 15.965 93.5824 16.7563 93.1061 17.3378C92.6616 17.9192 91.8995 18.2745 90.8199 18.4037L89.7244 18.5006C86.1682 18.8559 84.39 20.6971 84.39 24.0242V33.0363C84.39 35.5235 83.1834 36.7671 80.7702 36.7671Z" fill="white"></path> <path d="M100.502 8.1803C99.1681 8.1803 98.1361 7.87344 97.4058 7.25971C96.7073 6.61368 96.358 5.70924 96.358 4.54638C96.358 3.35123 96.7073 2.44679 97.4058 1.83306C98.1361 1.18703 99.1681 0.864014 100.502 0.864014C103.232 0.864014 104.598 2.09147 104.598 4.54638C104.598 6.96899 103.232 8.1803 100.502 8.1803ZM100.502 36.7187C99.3269 36.7187 98.4219 36.3795 97.7869 35.7012C97.1836 34.9905 96.8819 34.0053 96.8819 32.7456V16.1749C96.8819 13.4939 98.0885 12.1534 100.502 12.1534C101.645 12.1534 102.518 12.5087 103.121 13.2193C103.756 13.8977 104.074 14.8829 104.074 16.1749V32.7456C104.074 34.0053 103.772 34.9905 103.169 35.7012C102.566 36.3795 101.677 36.7187 100.502 36.7187Z" fill="white"></path> <path d="M121.208 36.864C118.668 36.864 116.445 36.3633 114.54 35.362C112.667 34.3283 111.222 32.8748 110.206 31.0013C109.19 29.1278 108.682 26.9152 108.682 24.3633C108.682 21.8115 109.19 19.615 110.206 17.7738C111.222 15.9327 112.667 14.5275 114.54 13.5585C116.445 12.5571 118.668 12.0565 121.208 12.0565C122.192 12.0565 123.24 12.1857 124.352 12.4441C125.495 12.6702 126.59 13.074 127.638 13.6554C128.432 14.043 128.924 14.5921 129.114 15.3028C129.305 15.9811 129.257 16.6594 128.972 17.3378C128.718 18.0161 128.289 18.5168 127.686 18.8398C127.114 19.1305 126.431 19.0659 125.638 18.646C124.367 17.9676 123.129 17.6285 121.923 17.6285C120.049 17.6285 118.589 18.2261 117.541 19.4212C116.525 20.5841 116.017 22.2476 116.017 24.4118C116.017 26.5437 116.525 28.2234 117.541 29.4508C118.589 30.646 120.049 31.2436 121.923 31.2436C122.494 31.2436 123.097 31.179 123.732 31.0497C124.367 30.8882 125.003 30.6298 125.638 30.2745C126.431 29.8546 127.114 29.8061 127.686 30.1292C128.289 30.4522 128.702 30.9528 128.924 31.6312C129.146 32.2772 129.162 32.9555 128.972 33.6662C128.781 34.3768 128.305 34.9259 127.543 35.3135C126.463 35.8627 125.384 36.2503 124.304 36.4764C123.224 36.7348 122.192 36.864 121.208 36.864Z" fill="white"></path> <path d="M136.388 8.1803C135.054 8.1803 134.022 7.87344 133.292 7.25971C132.593 6.61368 132.244 5.70924 132.244 4.54638C132.244 3.35123 132.593 2.44679 133.292 1.83306C134.022 1.18703 135.054 0.864014 136.388 0.864014C139.118 0.864014 140.484 2.09147 140.484 4.54638C140.484 6.96899 139.118 8.1803 136.388 8.1803ZM136.388 36.7187C135.213 36.7187 134.308 36.3795 133.673 35.7012C133.07 34.9905 132.768 34.0053 132.768 32.7456V16.1749C132.768 13.4939 133.974 12.1534 136.388 12.1534C137.531 12.1534 138.404 12.5087 139.007 13.2193C139.642 13.8977 139.96 14.8829 139.96 16.1749V32.7456C139.96 34.0053 139.658 34.9905 139.055 35.7012C138.452 36.3795 137.563 36.7187 136.388 36.7187Z" fill="white"></path> <path d="M156.951 36.864C154.443 36.864 152.252 36.3633 150.378 35.362C148.537 34.3283 147.108 32.8909 146.092 31.0497C145.076 29.1763 144.568 26.9636 144.568 24.4118C144.568 21.8923 145.076 19.7119 146.092 17.8707C147.108 15.9973 148.537 14.5598 150.378 13.5585C152.252 12.5571 154.443 12.0565 156.951 12.0565C159.46 12.0565 161.635 12.5571 163.476 13.5585C165.35 14.5598 166.794 15.9973 167.811 17.8707C168.858 19.7119 169.382 21.8923 169.382 24.4118C169.382 26.9636 168.858 29.1763 167.811 31.0497C166.794 32.8909 165.35 34.3283 163.476 35.362C161.635 36.3633 159.46 36.864 156.951 36.864ZM156.951 31.3889C158.475 31.3889 159.714 30.8236 160.666 29.6931C161.651 28.5625 162.143 26.8021 162.143 24.4118C162.143 22.0538 161.651 20.3257 160.666 19.2274C159.714 18.0969 158.475 17.5316 156.951 17.5316C155.427 17.5316 154.189 18.0969 153.236 19.2274C152.284 20.3257 151.807 22.0538 151.807 24.4118C151.807 26.8021 152.284 28.5625 153.236 29.6931C154.189 30.8236 155.427 31.3889 156.951 31.3889Z" fill="white"></path> <path d="M176.735 36.5733C175.465 36.5733 174.449 36.1857 173.687 35.4104C172.957 34.6352 172.592 33.6339 172.592 32.4064C172.592 31.2113 172.957 30.2422 173.687 29.4993C174.449 28.724 175.465 28.3364 176.735 28.3364C178.006 28.3364 178.99 28.724 179.688 29.4993C180.419 30.2422 180.784 31.2113 180.784 32.4064C180.784 33.6339 180.419 34.6352 179.688 35.4104C178.99 36.1857 178.006 36.5733 176.735 36.5733Z" fill="white"></path> </svg> 