<?xml version="1.0" encoding="UTF-8"?> <svg xmlns="http://www.w3.org/2000/svg" width="185" height="171" viewBox="0 0 185 171" fill="none"> <path fill-rule="evenodd" clip-rule="evenodd" d="M106.856 139.683C77.8518 159.056 42.807 136.849 23.4481 107.867C8.97873 86.204 21.3023 58.5334 42.9805 44.0535C72.163 24.5613 112.904 5.94319 132.383 35.1047C155.724 70.0493 141.825 116.325 106.856 139.683Z" fill="#C6C5C5"></path> <path fill-rule="evenodd" clip-rule="evenodd" d="M118.856 141.683C89.8518 161.056 54.807 138.849 35.4481 109.867C20.9787 88.204 33.3023 60.5334 54.9805 46.0535C84.163 26.5613 124.904 7.94319 144.383 37.1047C167.724 72.0493 153.825 118.325 118.856 141.683Z" fill="#E83655"></path> <path d="M93.328 61.384C98.576 61.384 102.715 62.8773 105.744 65.864C108.773 68.8507 110.288 72.2213 110.288 75.976C110.288 79.688 108.624 82.376 105.296 84.04V84.488C105.723 84.7013 106.341 85.1707 107.152 85.896C108.005 86.5787 108.688 87.2613 109.2 87.944C110.608 89.736 111.312 91.784 111.312 94.088C111.312 98.6533 109.605 102.429 106.192 105.416C102.779 108.36 98.4907 109.832 93.328 109.832C88.208 109.832 83.9413 108.339 80.528 105.352C79.248 104.2 78.1173 102.685 77.136 100.808C76.7947 100.125 76.56 99.5707 76.432 99.144L76.304 98.504C75.8347 97.096 75.6 95.944 75.6 95.048C75.6 92.5733 77.6907 91.336 81.872 91.336C83.5787 91.336 84.7093 91.5493 85.264 91.976C85.9893 92.5307 86.6293 93.64 87.184 95.304C87.6107 96.6693 88.784 97.6933 90.704 98.376C91.5147 98.632 92.4107 98.76 93.392 98.76C95.6533 98.76 97.3173 98.312 98.384 97.416C99.4507 96.4773 99.984 95.432 99.984 94.28C99.984 93.128 99.4507 92.1253 98.384 91.272C97.36 90.376 96.1227 89.928 94.672 89.928C93.264 89.928 92.304 89.8853 91.792 89.8C91.28 89.7147 90.7253 89.5013 90.128 89.16C88.976 88.6053 88.4 86.9627 88.4 84.232C88.4 81.2453 89.1893 79.4747 90.768 78.92C91.4933 78.7067 92.6027 78.6 94.096 78.6C97.3387 78.6 98.96 77.768 98.96 76.104C98.96 75.208 98.5333 74.3547 97.68 73.544C96.8267 72.7333 95.632 72.328 94.096 72.328C92.6027 72.328 91.408 72.584 90.512 73.096C89.616 73.608 89.0613 74.12 88.848 74.632L88.464 75.4C87.4827 77.5333 86.0747 78.6 84.24 78.6C83.1733 78.6 82 78.216 80.72 77.448C78.5867 76.2107 77.52 74.7813 77.52 73.16C77.52 72.4773 78.0107 71.0267 78.992 68.808C79.1627 68.424 79.632 67.7627 80.4 66.824C81.168 65.8427 82.0427 64.9893 83.024 64.264C84.048 63.5387 85.456 62.8773 87.248 62.28C89.0827 61.6827 91.1093 61.384 93.328 61.384Z" fill="white"></path> </svg> 