<?xml version="1.0" encoding="UTF-8"?> <svg xmlns="http://www.w3.org/2000/svg" width="93" height="60" viewBox="0 0 93 60" fill="none"> <path d="M2.72954 41.2041C4.22677 43.0385 8.05735 42.0113 10.4227 41.3771C10.838 41.2657 11.2082 41.1664 11.5127 41.0969C20.4646 39.0524 24.1861 36.925 24.8926 37.171C25.6435 37.4325 22.9892 40.3744 19.589 48.9449C19.48 49.2197 19.3318 49.5521 19.1655 49.9251C18.2186 52.0492 16.6852 55.489 18.4606 57.0918C19.1798 57.7411 19.7084 58.1297 20.861 58.1476C22.7678 58.1772 24.4844 57.123 25.742 55.4356C30.4006 49.1849 31.764 41.0285 30.2728 35.1334C31.3945 34.4691 32.7204 33.2895 33.8503 32.5741C37.0955 30.5195 40.3445 28.4549 43.5973 26.4005C42.457 30.1823 41.9836 33.6843 41.3324 37.4842C40.5812 41.8678 39.9285 46.3215 40.237 50.0256C40.4469 52.5464 40.8473 56.3048 42.6937 56.4274C44.4454 56.5437 46.8498 54.6436 48.4342 51.3621C50.3941 47.3031 51.6976 41.2168 51.9712 37.3844C52.3183 32.5231 50.3833 27.6023 47.1069 24.5948C48.9119 23.4163 52.4633 20.4434 54.2363 19.1954C57.616 16.8166 59.8238 15.4976 62.6093 13.8135C61.7499 16.2147 59.7795 22.8164 59.3569 27.953C59.3349 28.221 59.2911 28.5497 59.242 28.9186C58.9623 31.019 58.5095 34.4206 60.9071 35.3241C61.8784 35.6901 62.5626 35.8823 63.7761 35.5823C65.7838 35.0861 67.2287 33.7025 67.9803 31.8955C70.9714 24.7047 69.2406 16.6482 65.0927 12.055C69.0261 9.907 72.2339 7.9103 77.7932 3.02198C76.8498 5.95414 76.6965 9.12895 76.5141 11.9106C76.4384 13.066 76.3626 14.2216 76.2187 15.4147C75.6156 20.4139 75.1316 25.4874 75.7211 29.6639C76.1222 32.5061 76.8222 36.7393 78.9813 36.7845C81.0296 36.8274 83.7133 34.5551 85.3557 30.761C87.4886 25.8338 88.5221 19.4424 88.609 14.7627C88.6821 10.822 87.1078 6.15765 84.7672 3.40656C84.5729 3.1783 84.3818 2.94608 84.191 2.7143C83.4668 1.8344 82.765 0.801159 81.693 0.232015C82.916 -0.649326 90.1115 -6.46847 90.7883 -7.52766C91.1414 -8.08029 91.1181 -8.55337 90.4283 -9.07712C90.0586 -9.35788 89.8997 -9.24426 86.9073 -7.19213C85.0933 -5.86268 82.8544 -4.22939 81.0902 -2.95146C80.755 -4.046 79.9734 -4.93776 79.3079 -5.82058C79.1274 -6.06006 78.9465 -6.3 78.7703 -6.54183C76.6056 -9.51324 72.5192 -12.1157 68.5185 -13.0734C66.1052 -13.6512 63.1392 -13.9786 60.3506 -14.1052C59.9489 -14.1235 59.5399 -14.1446 59.1255 -14.1659C56.7685 -14.2874 54.2353 -14.418 51.8619 -14.0866C47.6892 -13.504 44.7558 -11.5486 44.2749 -9.60212C43.768 -7.55034 47.7766 -5.80742 50.4856 -4.70222C54.4664 -3.07819 59.6086 -2.23932 64.7079 -1.53196C65.9249 -1.36314 67.0874 -1.13948 68.2497 -0.915876C70.6246 -0.458956 73.0499 -0.161875 75.522 0.0856356C75.9604 0.12953 76.3725 0.152525 76.7585 0.156539C69.2309 6.67664 67.7774 7.72288 64.2247 9.6681C64.259 9.44668 63.7074 8.96242 63.5477 8.72171C60.1328 3.5756 52.6582 -0.202868 44.7842 0.722436C42.8079 0.954694 41.0644 1.95448 40.0448 3.72115C39.4286 4.789 39.4365 5.48666 39.5395 6.50178C39.7935 9.00765 43.2593 9.47993 45.3995 9.77156C45.7753 9.82277 46.1102 9.8684 46.3797 9.91851C52.1478 10.9909 60.2249 10.7217 61.8655 10.5236C62.0093 10.5062 62.5836 10.2827 63.0338 10.52C62.3183 11.0318 60.0166 12.7224 56.1909 15.4152C55.299 16.0429 47.5311 20.9467 47.4153 20.7646C45.0223 17 40.3578 14.1802 35.4363 13.5031C31.3542 12.9414 25.132 12.8928 20.4997 13.9116C16.8355 14.7175 14.403 16.5842 14.155 18.2577C13.8936 20.0218 17.6273 21.1844 20.1438 21.9089C23.8417 22.9735 28.5017 23.2899 33.1112 23.4989C34.2114 23.5487 35.268 23.6489 36.3244 23.749C37.3133 23.8427 38.3021 23.9363 39.326 23.9888C40.1617 24.0316 41.0361 24.0338 41.9058 24.0361C42.1195 24.0366 42.333 24.0372 42.5455 24.0383C40.7894 25.1535 39.0192 26.2569 37.2348 27.3691C35.5775 28.4022 33.9079 29.4429 32.2257 30.5079C31.0115 31.2767 29.8024 31.9918 28.5469 32.7345C28.3924 32.8249 28.2386 32.9169 28.0845 33.0082C21.986 30.6816 12.7739 30.8914 5.32969 34.6312C3.39221 35.6045 2.0743 37.0774 1.88548 38.8522C1.77135 39.925 2.12302 40.4609 2.72954 41.2041Z" stroke="white" stroke-opacity="0.8" stroke-width="2" stroke-linecap="round"></path> </svg> 