<?xml version="1.0" encoding="UTF-8"?> <svg xmlns="http://www.w3.org/2000/svg" width="166" height="154" viewBox="0 0 166 154" fill="none"> <path fill-rule="evenodd" clip-rule="evenodd" d="M109.827 28.5014C143.14 38.8363 147.953 80.0442 137.626 113.333C129.907 138.213 100.65 146.062 75.7518 138.337C42.2341 127.938 2.11775 108.009 12.5089 74.5159C24.9607 34.3801 69.6627 16.0406 109.827 28.5014Z" fill="#C6C5C5"></path> <path fill-rule="evenodd" clip-rule="evenodd" d="M115.827 23.5014C149.14 33.8363 153.953 75.0442 143.626 108.333C135.907 133.213 106.65 141.062 81.7518 133.337C48.2341 122.938 8.11775 103.009 18.5089 69.5159C30.9607 29.3801 75.6627 11.0406 115.827 23.5014Z" fill="#E83655"></path> <path d="M82.952 56.688C84.0613 55.5787 85.256 55.024 86.536 55.024C87.8587 55.024 88.8827 55.1307 89.608 55.344C90.3333 55.5573 90.888 55.8133 91.272 56.112C91.656 56.368 91.9547 56.816 92.168 57.456C92.3813 58.1813 92.488 59.312 92.488 60.848V96.496C92.488 97.4773 92.4453 98.224 92.36 98.736C92.3173 99.2053 92.1253 99.76 91.784 100.4C91.1867 101.552 89.5227 102.128 86.792 102.128C84.1467 102.128 82.504 101.573 81.864 100.464C81.5227 99.824 81.3093 99.248 81.224 98.736C81.1813 98.1813 81.16 97.392 81.16 96.368V73.52L80.328 74.288C78.5787 75.6107 77.0853 76.272 75.848 76.272C74.6107 76.272 73.3093 75.5253 71.944 74.032C70.6213 72.5387 69.96 71.216 69.96 70.064C69.96 68.912 70.728 67.6533 72.264 66.288L82.76 56.816L82.952 56.688Z" fill="white"></path> </svg> 