<?xml version="1.0" encoding="UTF-8"?> <svg xmlns="http://www.w3.org/2000/svg" width="46" height="178" viewBox="0 0 46 178" fill="none"> <path d="M14.2202 0.0376985C10.0504 0.303539 7.59184 6.86682 6.07372 10.9196C5.80716 11.6312 5.56956 12.2655 5.35681 12.7747C-0.899548 27.7468 -1.66711 35.2847 -2.7455 36.0474C-3.89153 36.858 -5.3886 30.0166 -14.1977 16.3143C-14.4801 15.875 -14.805 15.3201 -15.1696 14.6975C-17.2458 11.1517 -20.6081 5.40962 -24.7311 6.31365C-26.4013 6.67988 -27.5016 7.04016 -28.7106 8.67869C-30.7107 11.3895 -30.9602 14.9415 -29.8297 18.4848C-25.6417 31.6104 -15.336 41.9587 -5.34466 45.8776C-5.54304 48.1734 -5.21131 51.2927 -5.34466 53.6526C-5.72769 60.4311 -6.10025 67.2252 -6.49141 74.0142C-10.7481 68.4856 -15.288 64.2035 -20.0727 59.3596C-25.5926 53.7714 -31.3141 48.2528 -36.9467 44.8868C-40.7799 42.5961 -46.5847 39.3065 -48.6563 41.8349C-50.6216 44.2335 -50.3632 49.6443 -47.2804 55.2969C-43.4673 62.2888 -36.071 70.422 -30.8518 74.7567C-24.2315 80.2551 -15.183 82.5341 -7.50315 80.9166C-7.66484 84.7236 -7.04444 92.8865 -7.0737 96.719C-7.12948 104.024 -7.50315 108.555 -7.94608 114.291C-10.5098 110.586 -17.9612 100.964 -24.899 95.0739C-25.261 94.7666 -25.6878 94.3656 -26.1667 93.9157C-28.8941 91.3535 -33.3108 87.2043 -37.069 89.722C-38.5914 90.7419 -39.5696 91.5278 -40.385 93.5809C-41.7341 96.9774 -41.2318 100.478 -39.4102 103.417C-32.1612 115.112 -18.8222 120.909 -7.97192 119.67C-8.92741 127.533 -9.35521 134.199 -8.0472 147.218C-11.2867 142.846 -15.6856 139.361 -19.4904 136.238C-21.0707 134.941 -22.6514 133.643 -24.216 132.209C-30.7714 126.201 -37.5556 120.288 -44.1545 116.84C-48.6453 114.494 -55.4391 111.146 -57.7206 114.204C-59.8851 117.104 -59.3792 123.299 -55.6203 129.562C-50.739 137.696 -42.6274 145.755 -36.0006 150.692C-30.4204 154.85 -22.1101 157.384 -15.7589 156.848C-15.2319 156.804 -14.7024 156.768 -14.174 156.732C-12.1677 156.596 -9.96433 156.649 -8.04693 155.694C-8.03764 158.358 -7.0737 174.687 -6.24845 176.749C-5.81788 177.825 -5.11498 178.278 -3.65519 177.825C-2.87263 177.583 -2.87263 177.237 -2.7455 170.825C-2.7911 166.85 -2.83657 161.951 -2.85941 158.101C-0.944466 158.745 1.13776 158.538 3.08799 158.489C3.61701 158.476 4.14706 158.463 4.67499 158.458C11.1618 158.402 19.092 155.204 24.5737 150.437C27.8805 147.562 31.3954 143.635 34.44 139.756C34.8786 139.197 35.3287 138.631 35.7848 138.057C38.379 134.794 41.1671 131.286 43.1282 127.533C46.5759 120.935 46.7812 114.707 44.4815 112.014C42.0573 109.175 35.4406 113.146 31.0733 115.904C24.6557 119.956 18.1726 126.486 11.9223 133.09C10.4306 134.666 8.9161 136.107 7.40198 137.548C4.30797 140.492 1.39179 143.673 -1.50143 146.973C-2.0145 147.558 -2.47054 148.126 -2.87263 148.677C-4.50163 131.15 -4.51098 127.985 -3.65519 120.877C-3.37265 121.154 -2.11138 120.859 -1.60195 120.877C9.28925 121.26 22.3856 114.4 29.1414 102.129C30.8372 99.0484 31.1923 95.5137 29.7036 92.2311C28.8037 90.247 27.7943 89.5409 26.2318 88.6449C22.3748 86.4331 18.1388 90.9299 15.5231 93.7067C15.0638 94.1943 14.6545 94.6288 14.3059 94.9647C6.84509 102.154 -1.06083 114.043 -2.46087 116.605C-2.58354 116.83 -2.85243 117.885 -3.65519 118.288C-3.65519 116.733 -3.71833 111.686 -3.65519 103.417C-3.64047 101.489 -2.70311 85.2784 -2.32293 85.2992C5.53658 85.7305 14.3721 81.9248 20.3966 75.5459C25.3935 70.255 31.8512 61.3598 35.1448 53.6526C37.7501 47.5561 37.5685 42.1393 35.4213 40.0617C33.158 37.8717 27.6564 42.0437 24.0331 44.9164C18.7087 49.1376 13.4705 55.5116 8.43827 61.9234C7.23724 63.4537 6.00876 64.8698 4.78054 66.2856C3.63086 67.6108 2.48129 68.9359 1.3548 70.3541C0.435452 71.5115 -0.46545 72.7661 -1.36157 74.0142C-1.58175 74.3208 -1.80176 74.6272 -2.02156 74.9315C-1.81912 71.2599 -1.58528 67.5805 -1.34956 63.8713C-1.13062 60.4263 -0.910057 56.9557 -0.711514 53.4421C-0.568199 50.9059 -0.353317 48.4322 -0.130173 45.8635C-0.101269 45.5484 -0.0753708 45.2327 -0.048111 44.9173C9.55177 38.5428 18.7083 25.0835 20.9837 10.5354C21.576 6.74908 20.8151 3.33962 18.4619 1.24294C17.0396 -0.0243858 15.9094 -0.0699928 14.2202 0.0376985Z" fill="#E83655" fill-opacity="0.1"></path> </svg> 