<?xml version="1.0" encoding="UTF-8"?> <svg xmlns="http://www.w3.org/2000/svg" width="203" height="225" viewBox="0 0 203 225" fill="none"> <path fill-rule="evenodd" clip-rule="evenodd" d="M177.18 215.99C164.557 222.261 127.047 196.687 115.366 190.255C98.3373 180.879 98.431 180.879 81.1663 171.799C68.3833 165.075 54.0878 158.664 42.969 149.422C39.8992 146.871 32.8752 139.734 31.131 137.981C21.3862 128.188 10.0261 116.715 8.14356 102.34C6.87119 92.6223 16.6731 85.9308 24.5847 82.2846C43.6021 73.5207 65.2561 77.5001 82.7484 86.7623C92.33 91.8355 100.287 98.8159 108.767 105.411C111.069 107.2 113.425 108.92 115.749 110.681C116.794 111.474 117.807 112.308 118.875 113.071C119.567 113.566 120.252 114.087 121.026 114.454C121.342 114.604 122.008 114.933 122.08 114.59C122.404 113.043 122.105 111.446 121.985 109.884C121.537 104.037 120.064 95.8194 119.48 90.4849C119.017 86.2444 118.833 79.5549 119.2 75.3354C119.681 69.7894 120.197 64.2332 121.16 58.7344C122.124 53.2298 123.546 47.7956 124.97 42.3753C125.643 39.816 126.536 37.3091 127.447 34.8153C131.4 23.9938 138.385 10.4107 151.337 8.30026C166.38 5.84865 176.929 20.791 181.896 32.4297C183.595 36.4111 185.22 40.4353 186.522 44.5666C198.913 83.8815 195.129 126.382 189.229 166.902C188.404 172.564 185.103 212.052 177.18 215.99Z" stroke="white" stroke-width="4" stroke-miterlimit="1.5" stroke-linecap="round" stroke-linejoin="round"></path> </svg> 