<?xml version="1.0" encoding="UTF-8"?> <svg xmlns="http://www.w3.org/2000/svg" width="764" height="800" viewBox="0 0 764 800" fill="none"> <path d="M470.372 -124.269C531.5 -94.1613 572.5 128.5 763.5 54.5C763.5 54.5 883.5 269 883.5 463.5C883.5 565.853 904.211 715.24 827.5 783C720.974 877.096 567.205 853.231 393.872 853.231C220.538 853.231 -83.1284 837.031 88.8716 772.231C303.872 691.231 219.872 584.231 181.872 548.231C143.872 512.231 7.37179 414.731 0.371791 293.231C-6.62821 171.731 86.3718 33.2307 181.872 -45.2693C277.372 -123.769 400 -158.93 470.372 -124.269Z" fill="url(#paint0_radial_20_177)"></path> <defs> <radialGradient id="paint0_radial_20_177" cx="0" cy="0" r="1" gradientUnits="userSpaceOnUse" gradientTransform="translate(880.371 820.231) rotate(-132.518) scale(718.388 577.112)"> <stop stop-color="#F999AA"></stop> <stop offset="1" stop-color="#FDEDF0" stop-opacity="0.38"></stop> </radialGradient> </defs> </svg> 