<?xml version="1.0" encoding="UTF-8"?> <svg xmlns="http://www.w3.org/2000/svg" width="180" height="176" viewBox="0 0 180 176" fill="none"> <path fill-rule="evenodd" clip-rule="evenodd" d="M42.0163 129.586C13.6631 109.273 22.0904 68.65 42.3887 40.3172C57.5602 19.1404 87.7988 20.9188 108.991 36.1013C137.519 56.5394 169.303 88.1025 148.88 116.61C124.406 150.771 76.2019 154.077 42.0163 129.586Z" fill="#C6C5C5"></path> <path fill-rule="evenodd" clip-rule="evenodd" d="M48.0163 123.586C19.6631 103.273 28.0904 62.65 48.3887 34.3172C63.5602 13.1404 93.7988 14.9188 114.991 30.1013C143.519 50.5394 175.303 82.1025 154.88 110.61C130.406 144.771 82.2019 148.077 48.0163 123.586Z" fill="#E83655"></path> <path d="M94.64 65.624C94.9813 65.0267 95.5573 64.6213 96.368 64.408C97.2213 64.152 98.3093 64.024 99.632 64.024C100.997 64.024 102.085 64.1733 102.896 64.472C103.707 64.728 104.283 65.176 104.624 65.816C104.965 66.4133 105.157 66.968 105.2 67.48C105.285 67.992 105.328 68.7387 105.328 69.72V105.304C105.328 106.968 105.115 108.205 104.688 109.016C104.304 109.784 103.685 110.296 102.832 110.552C102.021 110.808 100.997 110.936 99.76 110.936C98.5227 110.936 97.5413 110.829 96.816 110.616C96.0907 110.403 95.536 110.147 95.152 109.848C94.768 109.549 94.4907 109.123 94.32 108.568C94.064 107.843 93.936 106.733 93.936 105.24V97.432H76.592C73.6053 97.432 71.8347 96.6213 71.28 95C71.0667 94.3173 70.96 93.4 70.96 92.248C70.96 91.096 71.024 90.2427 71.152 89.688L76.464 68.248C76.72 67.2667 76.9333 66.52 77.104 66.008C77.3173 65.496 77.7013 65.0053 78.256 64.536C78.8533 64.0667 79.6 63.832 80.496 63.832C81.392 63.832 82.3733 63.9813 83.44 64.28C86.4267 65.0907 87.92 66.456 87.92 68.376C87.92 69.0587 87.7707 69.9547 87.472 71.064C87.4293 71.1493 87.408 71.2133 87.408 71.256L83.504 86.872H93.936V69.4C93.936 68.4187 93.9573 67.6933 94 67.224C94.0853 66.7547 94.2987 66.2213 94.64 65.624Z" fill="white"></path> </svg> 