<?xml version="1.0" encoding="UTF-8"?> <svg xmlns="http://www.w3.org/2000/svg" width="73" height="77" viewBox="0 0 73 77" fill="none"> <path fill-rule="evenodd" clip-rule="evenodd" d="M40.7013 76.9997C35.2487 77.0821 26.4228 61.9218 23.4188 57.7348C19.0392 51.6306 19.0719 51.6463 14.5606 45.6061C11.2205 41.1338 7.30033 36.5182 4.96123 31.4458C4.31546 30.0452 3.0546 26.3881 2.73827 25.4868C0.970895 20.4509 -1.08013 14.5607 0.661564 9.23779C1.83896 5.63965 6.37704 4.94069 9.74715 4.98809C17.8478 5.10214 24.7424 10.096 29.3027 16.2375C31.8008 19.6015 33.4135 23.3594 35.2732 27.0701C35.7779 28.0769 36.3135 29.069 36.8308 30.0698C37.0634 30.5201 37.2776 30.9794 37.523 31.4232C37.6821 31.7111 37.8344 32.0066 38.0432 32.2633C38.1286 32.3683 38.306 32.5938 38.3883 32.4864C38.7597 32.0016 38.9217 31.3949 39.1407 30.8306C39.9599 28.7185 40.8167 25.6096 41.5033 23.6536C42.0492 22.0987 43.1013 19.7371 43.9333 18.3277C45.0269 16.4754 46.1341 14.6252 47.3879 12.8695C48.6427 11.1118 50.0459 9.45502 51.4477 7.80359C52.1096 7.02384 52.8397 6.29904 53.5738 5.58181C56.7594 2.46938 61.4641 -1.10032 66.3372 0.321793C71.9975 1.9735 73.1862 8.93757 72.9778 13.8207C72.9065 15.4911 72.8022 17.1641 72.5674 18.8206C70.3321 34.5846 61.9193 48.7643 53.0982 61.9013C51.8657 63.7368 44.1239 76.947 40.7013 76.9997Z" fill="#E83655" fill-opacity="0.2"></path> </svg> 