<?xml version="1.0" encoding="UTF-8"?> <svg xmlns="http://www.w3.org/2000/svg" width="124" height="123" viewBox="0 0 124 123" fill="none"> <path d="M57 119C88.4802 119 114 93.4802 114 62C114 30.5198 88.4802 5 57 5C25.5198 5 0 30.5198 0 62C0 93.4802 25.5198 119 57 119Z" fill="#E83655"></path> <path d="M81.0624 90.0002C65.0674 90.0002 49.3149 90.0002 33.0774 90.0002C32.4236 81.2253 35.9347 74.3284 42.7777 69.299C50.675 63.5056 59.437 62.8265 68.104 67.3466C76.9503 71.9622 81.1889 79.6231 81.0624 90.0002ZM35.6711 87.4431C50.074 87.4431 64.1711 87.4431 78.2788 87.4431C77.8887 75.9943 68.5047 67.0601 57.2544 66.9859C45.7089 66.9116 36.0929 75.8457 35.6711 87.4431Z" fill="white"></path> <path d="M70.5607 47.229C70.5185 55.0278 64.1078 61.479 56.4846 61.4047C48.7771 61.3304 42.5457 54.9004 42.5879 47.0804C42.63 39.2286 48.8825 32.9578 56.6428 33.0002C64.4241 33.0427 70.6134 39.3666 70.5607 47.229ZM68.125 47.3457C68.2094 40.8414 62.9691 35.3664 56.6428 35.3451C50.327 35.3239 44.8864 40.8202 44.9075 47.2078C44.918 53.5211 49.8947 58.5929 56.2316 58.7521C62.8953 58.9112 68.0407 53.9773 68.125 47.3457Z" fill="white"></path> </svg> 