<?xml version="1.0" encoding="UTF-8"?> <svg xmlns="http://www.w3.org/2000/svg" width="723" height="274" viewBox="0 0 723 274" fill="none"> <path d="M42.991 52.0715C40.9728 58.944 50.0645 66.7382 55.6786 71.5511C56.6643 72.3961 57.543 73.1494 58.2353 73.7895C78.5954 92.6134 90.2427 98.253 90.8345 100.436C91.4634 102.755 79.6062 101.171 52.4507 107.357C51.5801 107.556 50.4991 107.755 49.2862 107.979C42.3784 109.252 31.1917 111.314 30.2252 118.484C29.8336 121.389 29.7666 123.372 31.6874 126.276C34.8652 131.082 40.4194 133.558 46.7689 133.807C70.2892 134.727 92.9393 124.171 105.087 110.365C108.655 112.025 113.855 113.313 117.565 114.906C128.219 119.483 138.904 124.052 149.57 128.647C138.202 132.275 128.667 137.087 118.088 141.965C105.883 147.593 93.6721 153.586 84.9676 160.694C79.044 165.531 70.3611 172.96 73.2042 177.774C75.9013 182.341 84.7365 185.085 95.6156 183.421C109.072 181.363 126.462 174.199 136.478 168.323C149.184 160.87 158.147 147.625 160.054 134.309C166.069 136.793 179.533 140.562 185.667 142.848C197.358 147.205 204.41 150.453 213.356 154.517C205.907 156.483 186.096 162.866 172.575 170.602C171.87 171.005 170.976 171.459 169.973 171.967C164.262 174.864 155.013 179.555 156.851 187.08C157.595 190.128 158.283 192.163 161.099 194.676C165.759 198.833 171.671 200.069 177.456 198.851C200.475 194.005 217.6 175.903 221.973 157.701C234.033 163.833 244.479 168.416 266.14 173.914C257.225 176.579 249.052 181.629 241.809 185.934C238.801 187.722 235.792 189.51 232.573 191.193C219.087 198.244 205.619 205.718 196.217 214.334C189.818 220.198 180.463 229.187 184.032 234.648C187.418 239.829 197.657 242.633 209.912 240.236C225.827 237.124 243.517 228.764 255.327 220.973C265.271 214.413 274.21 202.506 277.074 191.962C277.312 191.087 277.564 190.213 277.817 189.341C278.774 186.029 280.152 182.511 279.743 178.864C284.024 180.405 310.795 188.391 314.589 188.266C316.568 188.201 317.707 187.333 317.836 184.717C317.905 183.315 317.351 183.113 307.135 179.162C300.728 176.914 292.841 174.126 286.648 171.914C288.804 169.205 289.693 165.73 290.758 162.56C291.047 161.7 291.336 160.838 291.639 159.985C295.352 149.503 294.869 134.86 290.433 123.245C287.757 116.239 283.516 108.282 279.076 101.112C278.436 100.079 277.792 99.0236 277.138 97.9536C273.422 91.8684 269.427 85.3281 264.554 79.9769C255.987 70.5689 246.112 66.6002 240.441 68.7318C234.464 70.9786 236.957 83.9568 238.822 92.6031C241.563 105.308 248.242 119.566 255.174 133.492C256.829 136.816 258.254 140.097 259.679 143.378C262.59 150.082 265.985 156.638 269.584 163.226C270.222 164.394 270.868 165.461 271.516 166.43C242.432 158.816 237.346 156.982 226.441 151.452C227.051 151.159 227.317 148.954 227.645 148.144C234.645 130.823 231.315 105.719 215.582 87.6686C211.633 83.1378 206.169 80.501 200.028 80.9817C196.316 81.2723 194.591 82.4859 192.237 84.4795C186.425 89.4009 191.159 98.8513 194.081 104.687C194.595 105.712 195.052 106.625 195.387 107.383C202.55 123.601 216.995 143.281 220.286 147.033C220.574 147.362 222.111 148.411 222.287 149.94C219.792 149.032 211.654 146.185 198.42 141.253C195.335 140.103 169.869 129.124 170.125 128.524C175.425 116.115 174.498 99.659 167.793 86.2281C162.232 75.0881 151.742 59.4894 141.304 49.6818C133.048 41.9238 124.248 39.0522 119.655 41.2975C114.813 43.6643 118.283 54.9639 120.769 62.4787C124.422 73.5213 131.58 85.6828 138.919 97.5346C140.671 100.363 142.223 103.169 143.775 105.975C145.228 108.601 146.681 111.227 148.296 113.87C149.615 116.027 151.1 118.211 152.578 120.384C152.941 120.917 153.303 121.451 153.663 121.983C147.889 119.512 142.121 116.986 136.307 114.44C130.906 112.075 125.466 109.692 119.943 107.32C115.957 105.607 112.113 103.816 108.121 101.957C107.633 101.726 107.141 101.5 106.651 101.272C102.049 82.0836 85.8176 59.4714 63.8041 47.3081C58.0747 44.1423 52.1569 43.3764 47.4123 45.9425C44.5444 47.4935 43.8085 49.2875 42.991 52.0715Z" stroke="white" stroke-width="4" stroke-linecap="round"></path> <path d="M679.469 52.0715C681.487 58.944 672.395 66.7382 666.781 71.5511C665.796 72.3961 664.917 73.1494 664.225 73.7895C643.865 92.6134 632.217 98.253 631.625 100.436C630.997 102.755 642.854 101.171 670.009 107.357C670.88 107.556 671.961 107.755 673.174 107.979C680.082 109.252 691.268 111.314 692.235 118.484C692.626 121.389 692.693 123.372 690.773 126.276C687.595 131.082 682.041 133.558 675.691 133.807C652.171 134.727 629.521 124.171 617.373 110.365C613.805 112.025 608.605 113.313 604.895 114.906C594.241 119.483 583.556 124.052 572.89 128.647C584.258 132.275 593.793 137.087 604.372 141.965C616.577 147.593 628.788 153.586 637.492 160.694C643.416 165.531 652.099 172.96 649.256 177.774C646.559 182.341 637.724 185.085 626.844 183.421C613.388 181.363 595.998 174.199 585.981 168.323C573.276 160.87 564.313 147.625 562.406 134.309C556.391 136.793 542.927 140.562 536.793 142.848C525.102 147.205 518.05 150.453 509.104 154.517C516.553 156.483 536.364 162.866 549.885 170.602C550.59 171.005 551.484 171.459 552.487 171.967C558.198 174.864 567.447 179.555 565.609 187.08C564.865 190.128 564.177 192.163 561.361 194.676C556.701 198.833 550.789 200.069 545.004 198.851C521.985 194.005 504.86 175.903 500.487 157.701C488.427 163.833 477.981 168.416 456.32 173.914C465.235 176.579 473.408 181.629 480.651 185.934C483.659 187.722 486.668 189.51 489.887 191.193C503.373 198.244 516.841 205.718 526.243 214.334C532.642 220.198 541.997 229.187 538.428 234.648C535.042 239.829 524.803 242.633 512.548 240.236C496.633 237.124 478.943 228.764 467.133 220.973C457.189 214.413 448.25 202.506 445.386 191.962C445.148 191.087 444.896 190.213 444.643 189.341C443.686 186.029 442.308 182.511 442.717 178.864C438.436 180.405 411.665 188.391 407.871 188.266C405.892 188.201 404.753 187.333 404.624 184.717C404.555 183.315 405.109 183.113 415.325 179.162C421.732 176.914 429.619 174.126 435.812 171.914C433.656 169.205 432.767 165.73 431.702 162.56C431.413 161.7 431.124 160.838 430.821 159.985C427.108 149.503 427.591 134.86 432.027 123.245C434.703 116.239 438.944 108.282 443.384 101.112C444.024 100.079 444.668 99.0236 445.322 97.9536C449.038 91.8684 453.033 85.3281 457.906 79.9769C466.473 70.5689 476.348 66.6002 482.018 68.7318C487.996 70.9786 485.503 83.9568 483.638 92.6031C480.897 105.308 474.218 119.566 467.285 133.492C465.631 136.816 464.206 140.097 462.781 143.378C459.87 150.082 456.475 156.638 452.876 163.226C452.238 164.394 451.592 165.461 450.944 166.43C480.028 158.816 485.114 156.982 496.019 151.452C495.409 151.159 495.143 148.954 494.815 148.144C487.815 130.823 491.145 105.719 506.878 87.6686C510.827 83.1378 516.291 80.501 522.432 80.9817C526.144 81.2723 527.869 82.4859 530.223 84.4795C536.035 89.4009 531.301 98.8513 528.379 104.687C527.865 105.712 527.408 106.625 527.073 107.383C519.91 123.601 505.465 143.281 502.174 147.033C501.886 147.362 500.349 148.411 500.173 149.94C502.668 149.032 510.806 146.185 524.04 141.253C527.125 140.103 552.591 129.124 552.335 128.524C547.035 116.115 547.962 99.659 554.667 86.2281C560.228 75.0881 570.718 59.4894 581.156 49.6818C589.412 41.9238 598.212 39.0522 602.805 41.2975C607.647 43.6643 604.177 54.9639 601.691 62.4787C598.038 73.5213 590.88 85.6828 583.541 97.5346C581.789 100.363 580.237 103.169 578.685 105.975C577.232 108.601 575.779 111.227 574.164 113.87C572.845 116.027 571.36 118.211 569.882 120.384C569.519 120.917 569.157 121.451 568.797 121.983C574.571 119.512 580.339 116.986 586.153 114.44C591.554 112.075 596.994 109.692 602.517 107.32C606.503 105.607 610.347 103.816 614.338 101.957C614.827 101.726 615.319 101.5 615.809 101.272C620.411 82.0836 636.642 59.4714 658.656 47.3081C664.385 44.1423 670.303 43.3764 675.048 45.9425C677.916 47.4935 678.651 49.2875 679.469 52.0715Z" stroke="white" stroke-width="4" stroke-linecap="round"></path> </svg> 