<?xml version="1.0" encoding="UTF-8"?> <svg xmlns="http://www.w3.org/2000/svg" width="433" height="446" viewBox="0 0 433 446" fill="none"> <path fill-rule="evenodd" clip-rule="evenodd" d="M214.046 437.983C182.945 436.21 138.907 346.052 123.516 320.919C101.079 284.277 101.259 284.38 78.0444 248.05C60.8566 221.15 40.4234 193.194 29.1866 163.281C26.0845 155.022 20.4078 133.63 18.977 128.356C10.9827 98.8861 1.72435 64.4245 13.8419 34.7607C22.0334 14.709 48.178 12.5869 67.3602 14.2441C113.468 18.2281 150.693 49.5672 174.145 86.4956C186.992 106.723 194.631 128.835 203.698 150.779C206.158 156.733 208.801 162.616 211.336 168.541C212.476 171.206 213.507 173.916 214.722 176.55C215.51 178.258 216.256 180.008 217.34 181.559C217.784 182.193 218.701 183.553 219.215 182.974C221.53 180.36 222.703 176.964 224.184 173.833C229.722 162.115 235.885 144.724 240.603 133.843C244.355 125.193 251.323 112.147 256.644 104.446C263.638 94.3237 270.709 84.2191 278.576 74.7143C286.451 65.1989 295.128 56.3202 303.796 47.4715C307.889 43.2935 312.347 39.4572 316.825 35.6656C336.259 19.2124 364.536 0.774299 391.715 10.896C423.285 22.652 427.187 62.8882 423.988 90.6726C422.893 100.177 421.609 109.683 419.588 119.04C400.355 208.093 346.577 285.561 290.903 356.91C283.124 366.879 233.569 439.091 214.046 437.983Z" stroke="white" stroke-width="4" stroke-miterlimit="1.5" stroke-linecap="round" stroke-linejoin="round"></path> </svg> 