<?xml version="1.0" encoding="UTF-8"?> <svg xmlns="http://www.w3.org/2000/svg" width="124" height="123" viewBox="0 0 124 123" fill="none"> <path d="M57 119C88.4802 119 114 93.4802 114 62C114 30.5198 88.4802 5 57 5C25.5198 5 0 30.5198 0 62C0 93.4802 25.5198 119 57 119Z" fill="#E83655"></path> <path d="M93.257 44.251H31.8201V69.1291H93.257V44.251Z" fill="#E83655" stroke="white" stroke-width="2" stroke-miterlimit="10"></path> <path d="M87.4887 49.9086H26.0518V74.7868H87.4887V49.9086Z" fill="#E83655" stroke="white" stroke-width="2" stroke-miterlimit="10"></path> <path d="M82.473 55.9316H21.0361V80.8098H82.473V55.9316Z" fill="#E83655" stroke="white" stroke-width="2" stroke-miterlimit="10"></path> <path d="M51.7492 77.4218C56.7449 77.4218 60.7948 73.372 60.7948 68.3762C60.7948 63.3805 56.7449 59.3306 51.7492 59.3306C46.7535 59.3306 42.7036 63.3805 42.7036 68.3762C42.7036 73.372 46.7535 77.4218 51.7492 77.4218Z" stroke="white" stroke-width="2" stroke-miterlimit="10"></path> <path d="M26.5942 62.7186V75.5396" stroke="white" stroke-width="2" stroke-miterlimit="10"></path> <path d="M76.7268 62.7186V75.5396" stroke="white" stroke-width="2" stroke-miterlimit="10"></path> </svg> 