<?xml version="1.0" encoding="UTF-8"?> <svg xmlns="http://www.w3.org/2000/svg" width="488" height="660" viewBox="0 0 488 660" fill="none"> <path d="M471.455 43.4929C455.849 37.4776 435.922 57.2231 423.617 69.4158C421.456 71.5567 419.53 73.465 417.904 74.9597C370.09 118.918 354.678 145.038 349.48 146.006C343.956 147.034 349.968 119.654 340.884 55.0874C340.593 53.0174 340.341 50.456 340.058 47.582C338.446 31.2145 335.836 4.70844 319.333 1.09194C312.647 -0.373089 308.043 -0.905669 300.905 3.02728C289.094 9.534 282.239 22.03 280.417 36.8054C273.666 91.5379 293.808 146.416 323.571 177.393C319.006 185.408 314.989 197.304 310.553 205.66C297.811 229.663 285.081 253.74 272.291 277.768C266.072 250.541 256.736 227.371 247.451 201.749C236.739 172.19 225.178 142.546 210.336 120.877C200.235 106.131 184.638 84.4522 172.873 90.1758C161.712 95.6058 153.592 115.71 155.336 141.423C157.492 173.228 170.765 215.182 182.482 239.679C197.345 270.755 226.426 294.191 257.056 301.169C250.094 314.739 238.682 345.455 232.158 359.34C219.724 385.806 210.78 401.651 199.565 421.766C196.447 404.003 185.467 356.544 170.106 323.513C169.305 321.79 168.424 319.617 167.436 317.18C161.811 303.298 152.7 280.817 134.821 283.679C127.578 284.838 122.706 286.057 116.304 292.156C105.712 302.246 101.678 315.813 103.38 329.547C110.153 384.205 148.942 427.615 190.465 441.277C173.825 468.267 161.109 491.783 144.066 541.307C139.608 519.989 129.451 499.952 120.847 482.227C117.273 474.865 113.699 467.502 110.411 459.669C96.6383 426.849 81.8743 393.99 63.6554 370.406C51.257 354.357 32.1616 330.812 18.7475 338.108C6.02172 345.03 -2.51181 368.399 0.667474 397.464C4.7962 435.207 20.7936 478.089 36.6191 507.136C49.9453 531.595 75.9165 554.721 99.9042 563.408C101.895 564.129 103.88 564.885 105.861 565.639C113.383 568.503 121.304 572.387 129.876 572.122C125.448 581.825 101.612 642.806 101.159 651.686C100.923 656.319 102.72 659.142 108.786 659.94C112.038 660.367 112.616 659.112 123.815 636.011C130.305 621.483 138.341 603.598 144.705 589.561C150.589 595.108 158.505 597.843 165.677 600.931C167.623 601.768 169.572 602.608 171.499 603.475C195.177 614.132 229.364 615.782 257.274 607.631C274.111 602.714 293.465 594.321 311.029 585.317C313.559 584.02 316.144 582.715 318.763 581.393C333.658 573.871 349.668 565.788 363.081 555.427C386.663 537.212 397.838 514.912 393.986 501.27C389.926 486.89 359.222 490.247 338.726 492.961C308.608 496.95 274.104 509.835 240.324 523.377C232.262 526.61 224.343 529.314 216.425 532.017C200.247 537.542 184.318 544.224 168.275 551.375C165.43 552.643 162.82 553.948 160.435 555.277C183.86 488.826 189.126 477.302 204.139 452.893C204.702 454.373 209.781 455.412 211.604 456.33C250.559 475.959 309.659 472.947 354.767 439.644C366.089 431.285 373.299 419.029 373.383 404.602C373.433 395.882 370.946 391.625 366.765 385.751C356.446 371.251 333.516 380.508 319.357 386.223C316.87 387.227 314.655 388.122 312.825 388.759C273.662 402.406 225.013 432.391 215.633 439.363C214.811 439.974 212.066 443.361 208.472 443.483C211.076 437.83 219.298 419.373 233.373 389.414C236.654 382.43 267.204 325.064 268.551 325.776C296.404 340.504 334.899 341.461 367.483 328.357C394.508 317.488 432.88 295.96 457.759 273.454C477.439 255.651 485.848 235.654 481.52 224.505C476.959 212.753 449.971 218.71 431.988 223.087C405.563 229.519 375.846 243.922 346.815 258.808C339.886 262.36 333.049 265.452 326.213 268.543C319.814 271.436 313.416 274.329 306.946 277.598C301.666 280.267 296.289 283.32 290.942 286.357C289.628 287.103 288.315 287.849 287.006 288.587C293.89 275.578 300.901 262.592 307.968 249.501C314.532 237.343 321.145 225.094 327.75 212.652C332.518 203.672 337.441 195.038 342.553 186.073C343.186 184.975 343.808 183.871 344.436 182.77C390.011 175.668 445.836 142.066 478.468 92.9838C486.961 80.2094 489.903 66.5398 484.858 54.9769C481.809 47.9878 477.776 45.9296 471.455 43.4929Z" fill="#E83655" fill-opacity="0.1"></path> </svg> 