<?xml version="1.0" encoding="UTF-8"?> <svg xmlns="http://www.w3.org/2000/svg" width="103" height="103" viewBox="0 0 103 103" fill="none"> <g clip-path="url(#clip0_432_245)"> <path d="M51.32 102.64C79.6633 102.64 102.64 79.6633 102.64 51.32C102.64 22.9767 79.6633 0 51.32 0C22.9767 0 0 22.9767 0 51.32C0 79.6633 22.9767 102.64 51.32 102.64Z" fill="#E83655"></path> <path d="M61.45 65.57C61.22 65.57 61.05 65.57 60.89 65.57C55.91 65.57 50.94 65.57 45.96 65.57C45.46 65.57 45.46 65.57 45.46 66.06C45.46 68.57 45.46 71.07 45.46 73.58C45.46 73.65 45.45 73.72 45.44 73.9C45.2 73.65 45.01 73.45 44.83 73.26C42.47 70.76 40.12 68.26 37.75 65.76C37.64 65.64 37.42 65.58 37.25 65.58C34.99 65.57 32.74 65.57 30.48 65.57C30.33 65.57 30.18 65.57 30 65.57C30 57.47 30 49.4 30 41.3C34.44 41.3 38.9 41.3 43.4 41.3C43.4 37.19 43.4 33.12 43.4 29C43.6 29 43.75 29 43.89 29C53.58 29 63.27 29 72.96 29C73.52 29 73.52 29 73.52 29.54C73.52 37.33 73.52 45.11 73.53 52.9C73.53 53.22 73.44 53.31 73.13 53.3C69.4 53.29 65.67 53.29 61.94 53.29C61.79 53.29 61.64 53.29 61.44 53.29C61.45 57.38 61.45 61.44 61.45 65.57ZM71.57 30.96C62.83 30.96 54.12 30.96 45.38 30.96C45.37 31.11 45.36 31.23 45.36 31.35C45.36 37.88 45.36 44.4 45.35 50.93C45.35 51.3 45.48 51.36 45.8 51.36C47.66 51.35 49.53 51.35 51.39 51.36C51.53 51.36 51.68 51.37 51.85 51.38C51.85 53.05 51.85 54.67 51.85 56.35C51.98 56.24 52.07 56.18 52.15 56.1C53.66 54.62 55.16 53.14 56.66 51.64C56.88 51.42 57.1 51.35 57.39 51.35C61.99 51.36 66.59 51.35 71.18 51.35C71.3 51.35 71.42 51.34 71.55 51.33C71.57 44.52 71.57 37.76 71.57 30.96ZM43.44 68.94C43.47 68.93 43.51 68.91 43.54 68.9C43.54 67.16 43.54 65.42 43.54 63.64C48.87 63.64 54.16 63.64 59.47 63.64C59.47 60.18 59.47 56.76 59.47 53.3C59.03 53.3 58.6 53.32 58.18 53.29C57.88 53.27 57.67 53.38 57.45 53.59C55.05 55.96 52.65 58.33 50.24 60.7C50.16 60.78 50.07 60.86 49.9 61.02C49.9 58.38 49.9 55.86 49.9 53.29C47.72 53.29 45.59 53.29 43.42 53.29C43.42 49.92 43.42 46.6 43.42 43.27C39.57 43.27 35.76 43.27 31.93 43.27C31.92 43.38 31.91 43.47 31.91 43.55C31.91 50.11 31.91 56.68 31.9 63.24C31.9 63.59 32.02 63.65 32.34 63.65C34.24 63.64 36.15 63.65 38.05 63.64C38.33 63.64 38.52 63.72 38.71 63.92C39.75 65.04 40.79 66.14 41.84 67.25C42.37 67.82 42.91 68.38 43.44 68.94Z" fill="white"></path> <path d="M54.0701 35.85C54.0801 37.32 52.9301 38.48 51.4801 38.48C50.0301 38.48 48.8601 37.31 48.8601 35.87C48.8601 34.45 50.0101 33.27 51.4001 33.26C52.9101 33.26 54.0601 34.38 54.0701 35.85ZM51.4701 36.53C51.8401 36.53 52.1401 36.22 52.1401 35.86C52.1301 35.49 51.8301 35.2 51.4601 35.2C51.0901 35.2 50.8001 35.5 50.8001 35.88C50.8001 36.25 51.0901 36.53 51.4701 36.53Z" fill="white"></path> <path d="M61.62 35.86C61.63 37.29 60.47 38.47 59.05 38.48C57.6 38.49 56.41 37.32 56.4 35.89C56.39 34.44 57.56 33.26 59 33.25C60.45 33.25 61.61 34.4 61.62 35.86ZM59.01 35.2C58.63 35.2 58.35 35.48 58.35 35.87C58.35 36.26 58.63 36.53 59.01 36.53C59.39 36.53 59.67 36.25 59.67 35.87C59.68 35.49 59.38 35.2 59.01 35.2Z" fill="white"></path> </g> <defs> <clipPath id="clip0_432_245"> <rect width="102.64" height="102.64" fill="white"></rect> </clipPath> </defs> </svg> 